<?xml version="1.0" standalone="no"?>
<!DOCTYPE svg PUBLIC "-//W3C//DTD SVG 1.1//EN" "http://www.w3.org/Graphics/SVG/1.1/DTD/svg11.dtd" >
<svg xmlns="http://www.w3.org/2000/svg">
<metadata></metadata>
<defs>
<font id="PlusnetCreightonProBook" horiz-adv-x="958" >
<font-face units-per-em="2048" ascent="1777" descent="-512" />
<missing-glyph horiz-adv-x="409" />
<glyph unicode="&#xfb01;" horiz-adv-x="798" d="M-16 965v34q0 58 57 58h53v102q0 107 57 167t158 60q57 0 93 -20.5t36 -56.5v-29q0 -23 -13 -35t-34 -12q-8 0 -25.5 2t-33.5 2q-35 0 -53.5 -23t-18.5 -63v-94h121q57 0 57 -58v-34q0 -58 -57 -58h-121v-850q0 -57 -57 -57h-51q-58 0 -58 57v850h-53q-57 0 -57 58z M537 1253v56q0 57 57 57h59q58 0 58 -57v-56q0 -57 -58 -57h-59q-57 0 -57 57zM541 57v942q0 58 57 58h51q58 0 58 -58v-942q0 -57 -58 -57h-51q-57 0 -57 57z" />
<glyph unicode="&#xfb02;" horiz-adv-x="798" d="M-16 965v34q0 58 57 58h53v102q0 107 57 167t158 60q57 0 93 -20.5t36 -56.5v-29q0 -23 -13 -35t-34 -12q-8 0 -25.5 2t-33.5 2q-35 0 -53.5 -23t-18.5 -63v-94h121q57 0 57 -58v-34q0 -58 -57 -58h-121v-850q0 -57 -57 -57h-51q-58 0 -58 57v850h-53q-57 0 -57 58z M541 57v1252q0 57 57 57h51q58 0 58 -57v-1252q0 -57 -58 -57h-51q-57 0 -57 57z" />
<glyph horiz-adv-x="2048" />
<glyph horiz-adv-x="2048" />
<glyph unicode="&#xd;" horiz-adv-x="2048" />
<glyph unicode=" "  horiz-adv-x="409" />
<glyph unicode="&#x09;" horiz-adv-x="409" />
<glyph unicode="&#xa0;" horiz-adv-x="409" />
<glyph unicode="!" horiz-adv-x="382" d="M94 1309q-1 27 14.5 42t43.5 15h79q28 0 43.5 -15t14.5 -42l-27 -893q-3 -58 -57 -58h-27q-54 0 -57 58zM100 57v72q0 57 58 57h67q58 0 58 -57v-72q0 -57 -58 -57h-67q-58 0 -58 57z" />
<glyph unicode="&#x22;" horiz-adv-x="595" d="M74 1309q-1 27 14 42t43 15h55q28 0 43.5 -15t14.5 -42l-29 -406q-3 -49 -49 -49h-14q-47 0 -50 49zM352 1309q-1 27 14.5 42t43.5 15h55q28 0 43 -15t14 -42l-28 -406q-3 -49 -50 -49h-14q-46 0 -49 49z" />
<glyph unicode="#" horiz-adv-x="905" d="M33 723l6 39q3 28 16 39.5t41 11.5h117l25 176h-117q-28 0 -37.5 11.5t-5.5 39.5l6 39q3 28 16 39.5t41 11.5h117l27 185q6 51 61 51h31q28 0 38 -11.5t7 -39.5l-27 -185h178l27 185q6 51 62 51h30q28 0 38 -11.5t7 -39.5l-26 -185h116q28 0 38 -11.5t7 -39.5l-6 -39 q-5 -28 -18 -39.5t-41 -11.5h-117l-24 -176h116q28 0 38 -11.5t7 -39.5l-6 -39q-3 -28 -16 -39.5t-41 -11.5h-119l-24 -185q-8 -51 -64 -51h-31q-28 0 -37.5 11.5t-5.5 39.5l25 185h-178l-25 -185q-8 -51 -63 -51h-31q-28 0 -37.5 11.5t-5.5 39.5l25 185h-115 q-28 0 -38.5 12t-6.5 39zM350 813h178l25 176h-178z" />
<glyph unicode="$" horiz-adv-x="718" d="M61 379v55q0 19 13 29t30 10q15 0 47 -15.5t78 -30.5t95 -15q76 0 127 36t51 123q0 41 -24 76.5t-62 62t-84 53t-92 57.5t-84 67t-62 89.5t-24 117.5q0 102 55 169.5t156 90.5v98q0 57 57 57h43q57 0 57 -57v-92q72 -10 122 -40.5t50 -62.5v-45q0 -19 -13 -28.5t-30 -9.5 q-11 0 -68.5 20t-111.5 20q-70 0 -112 -29.5t-42 -90.5q0 -37 24 -69.5t62.5 -58.5t84.5 -53t92.5 -59.5t85 -70.5t62.5 -92.5t24 -119.5q0 -123 -62 -197t-168 -98v-98q0 -57 -57 -57h-43q-57 0 -57 57v90q-89 9 -154.5 42.5t-65.5 68.5z" />
<glyph unicode="%" horiz-adv-x="1468" d="M72 772v365q0 106 63 176.5t180 70.5q116 0 178 -70.5t62 -176.5v-365q0 -105 -62 -175.5t-178 -70.5q-117 0 -180 70.5t-63 175.5zM186 772q0 -61 32.5 -101t96.5 -40q61 0 94 40t33 101v365q0 62 -32.5 101.5t-94.5 39.5q-64 0 -96.5 -39.5t-32.5 -101.5v-365z M386.5 15q-7.5 15 0.5 34l576 1268q22 49 65 49h27q20 0 27 -15t-1 -34l-575 -1268q-22 -49 -66 -49h-26q-20 0 -27.5 15zM913 229v365q0 105 62 175.5t178 70.5q117 0 180.5 -70.5t63.5 -175.5v-365q0 -106 -63.5 -176.5t-180.5 -70.5q-116 0 -178 70.5t-62 176.5z M1026 229q0 -62 32.5 -101.5t94.5 -39.5q64 0 96.5 39.5t32.5 101.5v365q0 61 -32.5 101t-96.5 40q-61 0 -94 -40t-33 -101v-365z" />
<glyph unicode="&#x26;" horiz-adv-x="1032" d="M61 328q0 113 55 196t154 154l37 27l-22 30q-42 54 -61 81t-43.5 70t-34 83.5t-9.5 87.5q0 149 100.5 244.5t245.5 95.5t244.5 -93.5t99.5 -238.5q0 -33 -7 -64t-16.5 -55t-30 -50.5t-35 -43.5t-44 -42.5t-45.5 -38.5t-51 -40l-55 -43l270 -344q27 76 27 145v62 q0 63 69 63h19q69 0 69 -63v-70q0 -141 -79 -270l120 -152q21 -26 8 -42.5t-53 -16.5h-75q-57 0 -93 49l-24 31q-140 -111 -309 -111q-93 0 -170 21t-136 63t-92 112t-33 163zM238 326q0 -98 63.5 -153.5t192.5 -55.5q122 0 215 80l-306 385l-43 -33q-122 -92 -122 -223z M309 1063q0 -37 16 -76.5t33 -63.5t45 -59l46 -59l34 24q35 25 58.5 45t53.5 52t46 68t16 75q0 71 -44.5 125.5t-118.5 54.5q-56 0 -95 -18.5t-57 -49t-25.5 -59t-7.5 -59.5z" />
<glyph unicode="'" horiz-adv-x="317" d="M74 1309q-1 27 14 42t43 15h55q28 0 43.5 -15t14.5 -42l-29 -406q-3 -49 -49 -49h-14q-47 0 -50 49z" />
<glyph unicode="(" horiz-adv-x="458" d="M92 686q0 154 19 296.5t50.5 249.5t63 182t64.5 130q14 25 31.5 36t48.5 11h47q21 0 32 -13.5t11 -29.5q0 -10 -20.5 -51.5t-49.5 -112t-57.5 -164t-49 -235.5t-20.5 -299t20.5 -299t49 -235.5t57.5 -164t49.5 -112t20.5 -51.5q0 -16 -11 -29.5t-32 -13.5h-45 q-31 0 -48.5 11t-31.5 36q-33 55 -64.5 130t-63.5 182t-51.5 249.5t-19.5 296.5z" />
<glyph unicode=")" horiz-adv-x="458" d="M0 -176q0 10 20.5 51.5t49.5 112t57.5 164t49 235.5t20.5 299t-20.5 299t-49.5 235.5t-57.5 164t-49 112t-20.5 51.5q0 16 11 29.5t32 13.5h45q31 0 48.5 -11t31.5 -36q33 -55 64.5 -130t63.5 -182t51.5 -249.5t19.5 -296.5t-19 -296.5t-50.5 -249.5t-63 -182t-64.5 -130 q-14 -25 -31.5 -36t-48.5 -11h-47q-21 0 -32 13.5t-11 29.5z" />
<glyph unicode="*" horiz-adv-x="663" d="M49 909q-23 41 21 62l174 78l-174 79q-44 20 -21 62l19 35q22 40 63 12l158 -115l-19 195q-3 49 43 49h39q46 0 43 -49l-20 -193l157 113q41 29 64 -12l18 -35q24 -43 -20 -62l-174 -79l174 -78q43 -21 20 -62l-20 -35q-22 -39 -64 -12l-155 111l20 -189q3 -49 -43 -49 h-39q-46 0 -43 49l19 191l-156 -113q-42 -27 -63 12z" />
<glyph unicode="+" horiz-adv-x="712" d="M72 530v35q0 58 57 58h152v151q0 57 57 57h39q57 0 57 -57v-151h150q57 0 57 -58v-35q0 -57 -57 -57h-150v-154q0 -57 -57 -57h-39q-57 0 -57 57v154h-152q-57 0 -57 57z" />
<glyph unicode="," horiz-adv-x="346" d="M82 57v72q0 57 57 57h68q57 0 57 -57v-72q0 -25 -18 -57l-78 -133q-17 -31 -37 -31h-25q-9 0 -14 8.5t0 22.5l55 133h-8q-57 0 -57 57z" />
<glyph unicode="-" horiz-adv-x="614" d="M72 586v28q0 34 14.5 49t48.5 15h344q34 0 49 -15t15 -49v-28q0 -32 -15 -47t-49 -15h-344q-33 0 -48 15t-15 47z" />
<glyph unicode="." horiz-adv-x="346" d="M82 57v72q0 57 57 57h68q57 0 57 -57v-72q0 -57 -57 -57h-68q-57 0 -57 57z" />
<glyph unicode="/" horiz-adv-x="704" d="M27 -14l481 1394q22 68 84 68h37q34 0 47 -18t2 -50l-481 -1394q-22 -68 -84 -68h-37q-34 0 -47 18t-2 50z" />
<glyph unicode="0" d="M82 377v612q0 83 25 155.5t72.5 129.5t125 90t174.5 33q129 0 221 -57.5t134.5 -148t42.5 -202.5v-612q0 -112 -42.5 -202.5t-134.5 -148t-221 -57.5q-97 0 -174.5 33t-125 90t-72.5 129.5t-25 155.5zM252 377q0 -109 57.5 -179.5t169.5 -70.5t170 70.5t58 179.5v612 q0 109 -58 179.5t-170 70.5t-169.5 -70.5t-57.5 -179.5v-612z" />
<glyph unicode="1" horiz-adv-x="409" d="M0 1274v35q0 57 57 57h107q25 0 47 -6t45 -21t37 -45.5t14 -74.5v-1162q0 -57 -57 -57h-55q-58 0 -58 57v1139q0 21 -20 21h-60q-57 0 -57 57z" />
<glyph unicode="2" horiz-adv-x="827" d="M51 57v144q0 101 29.5 189t76 150.5t103 118t113.5 102.5t103.5 91.5t76 97t29.5 109.5q0 91 -62.5 139.5t-165.5 48.5q-53 0 -102 -13.5t-82.5 -27.5t-48.5 -14q-19 0 -31 11.5t-12 33.5v41q0 48 82.5 83.5t199.5 35.5q79 0 149 -20.5t125.5 -60.5t88.5 -105.5 t33 -147.5q0 -78 -29.5 -146.5t-76.5 -120t-104 -101t-114.5 -100t-104.5 -105t-76.5 -128t-29.5 -157.5v-35q0 -20 21 -20h444q57 0 57 -58v-35q0 -57 -57 -57h-577q-58 0 -58 57z" />
<glyph unicode="3" horiz-adv-x="806" d="M20 86v41q0 22 12 33.5t31 11.5q10 0 41 -13t80 -26.5t105 -13.5q140 0 214.5 77t74.5 199q0 117 -79.5 186.5t-197.5 69.5h-61q-58 0 -58 58v34q0 58 58 58h53q109 0 175.5 58.5t66.5 162.5q0 105 -67 165t-173 60q-56 0 -114 -14t-70 -14q-19 0 -31 11.5t-12 33.5v28 q0 47 64 76t165 29q81 0 152.5 -21.5t129.5 -64t92 -115t34 -166.5q0 -193 -164 -301q92 -48 148 -132t56 -202q0 -193 -119 -309.5t-323 -116.5q-127 0 -205 37t-78 80z" />
<glyph unicode="4" horiz-adv-x="839" d="M10 319v31q0 41 17 76l403 883q26 57 84 57h121q57 0 57 -57v-869q0 -20 21 -20h59q57 0 57 -58v-43q0 -57 -57 -57h-59q-21 0 -21 -20v-185q0 -57 -57 -57h-55q-58 0 -58 57v185q0 20 -20 20h-434q-58 0 -58 57zM205 426q4 -6 14 -6h283q20 0 20 20v697l-317 -695 q-4 -10 0 -16z" />
<glyph unicode="5" horiz-adv-x="825" d="M61 84v55q0 22 12.5 31.5t28.5 9.5q12 0 40 -15t76.5 -30.5t109.5 -15.5q118 0 194 83.5t76 225.5q0 127 -76 213t-225 86q-43 0 -95 -9t-63 -9q-22 0 -34.5 13.5t-12.5 33.5v553q0 57 58 57h475q57 0 57 -57v-35q0 -57 -57 -57h-346q-21 0 -21 -21v-305q0 -6 2.5 -9 t8 -4.5t10 -1.5t13.5 0.5t13 0.5q91 0 170.5 -25t145.5 -76t104.5 -140t38.5 -206q0 -205 -115 -333t-313 -128q-119 0 -197 38t-78 77z" />
<glyph unicode="6" horiz-adv-x="933" d="M72 377v110q0 131 32.5 268t83 246.5t109 198.5t113 137.5t92.5 48.5h47q47 0 47 -34q0 -16 -14 -33q-206 -226 -265 -461q67 25 150 25q97 0 174 -33t124.5 -90t72 -129.5t24.5 -155.5v-98q0 -83 -24.5 -155.5t-72 -129.5t-124.5 -90t-174 -33t-174 33t-124.5 90 t-72 129.5t-24.5 155.5zM242 377q0 -110 57 -182t168 -72t168 72t57 182v98q0 110 -57 182t-168 72t-168 -72t-57 -182v-98z" />
<glyph unicode="7" horiz-adv-x="786" d="M31 1266v43q0 57 57 57h610q58 0 58 -57v-49q0 -28 -19 -80l-436 -1123q-23 -57 -70 -57h-69q-29 0 -42 15.5t-3 41.5l440 1117q7 18 0.5 26t-18.5 8h-451q-57 0 -57 58z" />
<glyph unicode="8" horiz-adv-x="917" d="M61 383q0 115 46 205.5t126 142.5q-124 111 -124 293q0 172 100.5 272.5t249.5 100.5t249.5 -100.5t100.5 -272.5q0 -182 -125 -293q80 -52 126 -142.5t46 -205.5q0 -187 -112.5 -300.5t-284.5 -113.5t-285 113.5t-113 300.5zM231 387q0 -123 65 -191.5t163 -68.5 t162.5 68.5t64.5 191.5t-64.5 191.5t-162.5 68.5t-163 -68.5t-65 -191.5zM274 1020q0 -108 52.5 -163.5t132.5 -55.5t132 55.5t52 163.5t-52 163.5t-132 55.5t-132.5 -55.5t-52.5 -163.5z" />
<glyph unicode="9" horiz-adv-x="933" d="M72 891v98q0 83 24.5 155.5t72 129.5t124.5 90t174 33t174 -33t124.5 -90t72 -129.5t24.5 -155.5v-110q0 -131 -32.5 -268t-83 -246.5t-109 -198.5t-113 -137.5t-92.5 -48.5h-47q-47 0 -47 34q0 16 14 33q204 224 264 461q-67 -25 -149 -25q-97 0 -174 33t-124.5 90 t-72 129.5t-24.5 155.5zM242 891q0 -110 57 -182t168 -72t168 72t57 182v98q0 110 -57 182t-168 72t-168 -72t-57 -182v-98z" />
<glyph unicode=":" horiz-adv-x="346" d="M82 57v72q0 57 57 57h68q57 0 57 -57v-72q0 -57 -57 -57h-68q-57 0 -57 57zM82 633v72q0 57 57 57h68q57 0 57 -57v-72q0 -58 -57 -58h-68q-57 0 -57 58z" />
<glyph unicode=";" horiz-adv-x="346" d="M82 57v72q0 57 57 57h68q57 0 57 -57v-72q0 -25 -18 -57l-78 -133q-17 -31 -37 -31h-25q-9 0 -14 8.5t0 22.5l55 133h-8q-57 0 -57 57zM82 633v72q0 57 57 57h68q57 0 57 -57v-72q0 -58 -57 -58h-68q-57 0 -57 58z" />
<glyph unicode="&#x3c;" horiz-adv-x="753" d="M92 522v35q0 52 58 80l454 223q25 13 41.5 3t16.5 -38v-43q0 -53 -58 -80l-338 -163l338 -162q58 -27 58 -80v-43q0 -28 -16.5 -37.5t-41.5 2.5l-454 223q-58 28 -58 80z" />
<glyph unicode="=" horiz-adv-x="712" d="M72 397v35q0 57 57 57h455q57 0 57 -57v-35q0 -57 -57 -57h-455q-57 0 -57 57zM72 664v34q0 58 57 58h455q57 0 57 -58v-34q0 -58 -57 -58h-455q-57 0 -57 58z" />
<glyph unicode="&#x3e;" horiz-adv-x="753" d="M92 254v43q0 53 58 80l337 162l-337 163q-58 27 -58 80v43q0 28 16.5 38t41.5 -3l454 -223q58 -28 58 -80v-35q0 -52 -58 -80l-454 -223q-25 -12 -41.5 -2.5t-16.5 37.5z" />
<glyph unicode="?" horiz-adv-x="741" d="M20 1243v29q0 49 78 87t189 38q108 0 195.5 -38t142.5 -118.5t55 -191.5q0 -62 -20 -116.5t-51.5 -95.5t-70.5 -79t-77.5 -74t-70 -73t-51.5 -84t-20 -99v-12q0 -58 -57 -58h-26q-55 0 -58 58q0 95 34 172.5t82 129.5t96 98.5t82 101.5t34 116q0 98 -66 152.5t-164 54.5 q-55 0 -99.5 -11.5t-73 -23.5t-44.5 -12q-18 0 -28.5 13t-10.5 36zM158 57v72q0 57 57 57h68q57 0 57 -57v-72q0 -57 -57 -57h-68q-57 0 -57 57z" />
<glyph unicode="@" horiz-adv-x="1294" d="M82 547v311q0 137 44 242t121.5 169t178.5 96t221 32t221 -32t178.5 -96t121.5 -169t44 -242v-311q0 -134 -58.5 -205.5t-170.5 -71.5q-70 0 -123 28.5t-82 76.5q-58 -99 -166 -99q-91 0 -152 64t-61 180q0 131 88 214t261 83q0 123 -125 123q-41 0 -83 -12.5t-51 -12.5 q-13 0 -22.5 9.5t-9.5 27.5v25q0 29 49.5 49.5t126.5 20.5q106 0 168.5 -56.5t62.5 -167.5v-311q0 -67 36.5 -101t88.5 -34q111 0 111 170v311q0 95 -25.5 170.5t-68 123.5t-102 80t-123 45t-134.5 13q-90 0 -167 -22t-143 -70t-104 -135t-38 -205v-311q0 -471 430 -471 q74 0 137 18q39 10 53 -16l12 -23q7 -12 7 -18q0 -26 -48 -42.5t-90.5 -21t-72.5 -4.5q-264 0 -402.5 145.5t-138.5 432.5zM516 522q0 -72 34 -106.5t83 -34.5q44 0 77.5 30.5t37.5 94.5v209q-110 0 -171 -50.5t-61 -142.5z" />
<glyph unicode="A" horiz-adv-x="901" d="M-6 57l332 1252q16 57 65 57h123q50 0 66 -57l327 -1252q2 -9 2 -16q0 -15 -9 -25q-14 -16 -42 -16h-70q-52 0 -65 57l-82 314q-5 20 -25 20h-331q-20 0 -25 -20l-82 -314q-13 -57 -65 -57h-70q-28 0 -42 16q-9 10 -9 25q0 7 2 16zM311 569q-1 -2 -1 -4q0 -5 4 -10 q5 -6 14 -6h247q9 0 14 6q4 4 4 10q0 2 -1 4l-139 547z" />
<glyph unicode="B" d="M102 57v1252q0 57 58 57h284q189 0 305.5 -97t116.5 -272q0 -93 -43.5 -165.5t-120.5 -118.5q95 -46 150 -128.5t55 -193.5q0 -175 -122.5 -283t-319.5 -108h-305q-58 0 -58 57zM276 178q0 -20 21 -20h168q124 0 196 62.5t72 172.5q0 108 -69.5 172t-178.5 64h-188 q-21 0 -21 -21v-430zM276 807q0 -21 21 -21h147q112 0 180 53t68 158t-68 158t-180 53h-147q-21 0 -21 -20v-381z" />
<glyph unicode="C" horiz-adv-x="827" d="M82 406v555q0 196 105.5 316t316.5 120q128 0 210.5 -39.5t82.5 -89.5v-39q0 -22 -13.5 -34.5t-31.5 -12.5t-47.5 14t-79 28.5t-115.5 14.5q-127 0 -190.5 -75.5t-63.5 -202.5v-555q0 -127 63.5 -203t190.5 -76q66 0 115.5 14.5t79 28.5t47.5 14t31.5 -12.5t13.5 -34.5 v-39q0 -50 -82.5 -89.5t-210.5 -39.5q-108 0 -190 33.5t-132 93.5t-75 138t-25 172z" />
<glyph unicode="D" horiz-adv-x="991" d="M102 57v1252q0 57 58 57h346q186 0 294.5 -107.5t108.5 -312.5v-526q0 -205 -108.5 -312.5t-294.5 -107.5h-346q-58 0 -58 57zM276 178q0 -20 21 -20h209q103 0 166 65t63 197v526q0 132 -63 197t-166 65h-209q-21 0 -21 -20v-1010z" />
<glyph unicode="E" horiz-adv-x="804" d="M102 57v1252q0 57 58 57h540q58 0 58 -57v-43q0 -58 -58 -58h-403q-21 0 -21 -20v-377q0 -20 21 -20h266q58 0 58 -58v-43q0 -57 -58 -57h-266q-21 0 -21 -21v-434q0 -20 21 -20h430q57 0 57 -58v-43q0 -57 -57 -57h-567q-58 0 -58 57z" />
<glyph unicode="F" horiz-adv-x="768" d="M102 57v1252q0 57 58 57h540q58 0 58 -57v-43q0 -58 -58 -58h-403q-21 0 -21 -20v-397q0 -21 21 -21h266q58 0 58 -57v-43q0 -58 -58 -58h-266q-21 0 -21 -20v-535q0 -57 -57 -57h-59q-58 0 -58 57z" />
<glyph unicode="G" horiz-adv-x="966" d="M82 406v555q0 196 105.5 316t316.5 120q128 0 210.5 -39.5t82.5 -89.5v-39q0 -22 -13.5 -34.5t-31.5 -12.5t-47.5 14t-79 28.5t-115.5 14.5q-127 0 -190.5 -75.5t-63.5 -202.5v-555q0 -128 61 -203.5t187 -75.5q93 0 150 59.5t57 178.5v264q0 20 -21 20h-137 q-57 0 -57 58v43q0 57 57 57h274q58 0 58 -57v-365q0 -192 -100 -304t-281 -112q-206 0 -314 120t-108 317z" />
<glyph unicode="H" horiz-adv-x="1021" d="M102 57v1252q0 57 58 57h59q57 0 57 -57v-504q0 -21 21 -21h428q20 0 20 21v504q0 57 58 57h59q58 0 58 -57v-1252q0 -57 -58 -57h-59q-58 0 -58 57v549q0 21 -20 21h-428q-21 0 -21 -21v-549q0 -57 -57 -57h-59q-58 0 -58 57z" />
<glyph unicode="I" horiz-adv-x="378" d="M102 57v1252q0 57 58 57h59q57 0 57 -57v-1252q0 -57 -57 -57h-59q-58 0 -58 57z" />
<glyph unicode="J" horiz-adv-x="581" d="M10 74v37q0 22 12 33.5t31 11.5q15 0 52 -15.5t83 -15.5q53 0 87 33t34 98v1053q0 57 58 57h61q55 0 55 -57v-1045q0 -129 -77.5 -212t-200.5 -83q-94 0 -144.5 33t-50.5 72z" />
<glyph unicode="K" horiz-adv-x="950" d="M102 57v1252q0 57 58 57h59q57 0 57 -57v-604l439 618q16 24 31 33.5t42 9.5h76q30 0 45 -20.5t-4 -49.5l-338 -475l385 -758q7 -15 7 -26t-6 -19q-12 -18 -40 -18h-73q-29 0 -45.5 9.5t-28.5 33.5l-311 621l-179 -248v-359q0 -57 -57 -57h-59q-58 0 -58 57z" />
<glyph unicode="L" horiz-adv-x="794" d="M102 57v1252q0 57 56 57h61q57 0 57 -57v-1131q0 -20 21 -20h430q57 0 57 -58v-43q0 -57 -57 -57h-567q-58 0 -58 57z" />
<glyph unicode="M" horiz-adv-x="1245" d="M102 57v1252q0 54 56 57h49q25 0 40 -12.5t29 -42.5l347 -680l350 680q14 30 29 42.5t40 12.5h45q56 -3 56 -57v-1252q0 -57 -58 -57h-59q-57 0 -57 57v885l-264 -510q-25 -51 -60 -51h-49q-34 0 -59 51l-265 514v-889q0 -57 -57 -57h-55q-58 0 -58 57z" />
<glyph unicode="N" horiz-adv-x="1030" d="M102 57v1252q0 57 58 57h55q33 0 49 -23l494 -946v912q0 57 57 57h55q58 0 58 -57v-1252q0 -57 -58 -57h-55q-36 0 -51 27l-492 940v-910q0 -57 -57 -57h-55q-58 0 -58 57z" />
<glyph unicode="O" d="M82 377v612q0 83 25 155.5t72.5 129.5t125 90t174.5 33q129 0 221 -57.5t134.5 -148t42.5 -202.5v-612q0 -112 -42.5 -202.5t-134.5 -148t-221 -57.5q-97 0 -174.5 33t-125 90t-72.5 129.5t-25 155.5zM256 377q0 -110 56 -180t167 -70t167 70t56 180v612q0 110 -56 180 t-167 70t-167 -70t-56 -180v-612z" />
<glyph unicode="P" horiz-adv-x="944" d="M102 57v1252q0 57 58 57h313q85 0 158.5 -24.5t131 -72.5t91 -125.5t33.5 -176.5q0 -100 -33.5 -178t-91 -125.5t-131 -72t-158.5 -24.5h-176q-21 0 -21 -20v-490q0 -57 -57 -57h-59q-58 0 -58 57zM276 745q0 -20 21 -20h176q116 0 178 65.5t62 176.5t-62 176t-178 65 h-176q-21 0 -21 -20v-443z" />
<glyph unicode="Q" d="M82 377v612q0 83 25 155.5t72.5 129.5t125 90t174.5 33q129 0 221 -57.5t134.5 -148t42.5 -202.5v-612q0 -99 -33.5 -181.5t-105.5 -142t-173 -76.5v-124q0 -58 -57 -58h-57q-58 0 -58 58v124q-102 17 -173.5 76.5t-104.5 142t-33 181.5zM256 377q0 -110 56 -180t167 -70 t167 70t56 180v612q0 110 -56 180t-167 70t-167 -70t-56 -180v-612z" />
<glyph unicode="R" horiz-adv-x="954" d="M102 57v1252q0 57 58 57h313q182 0 298 -100t116 -293q0 -120 -56 -211t-155 -137l242 -576q4 -9 4 -17q0 -10 -6 -18q-10 -14 -33 -14h-84q-31 0 -47.5 14.5t-28.5 42.5l-197 480q-10 25 -21.5 34t-37.5 9h-170q-21 0 -21 -21v-502q0 -57 -57 -57h-59q-58 0 -58 57z M276 758q0 -21 21 -21h176q117 0 178.5 62.5t61.5 173.5t-61.5 173t-178.5 62h-176q-21 0 -21 -20v-430z" />
<glyph unicode="S" horiz-adv-x="858" d="M31 131v27q0 51 49 51q17 0 42.5 -13t52 -28t81 -28t123.5 -13q65 0 114.5 19.5t78.5 52t43 70.5t14 79q0 64 -31 116t-80.5 89t-109.5 72.5t-119.5 74.5t-109 85t-80.5 114.5t-31 153.5q0 149 105 246.5t271 97.5q68 0 138 -17t122 -52.5t52 -80.5v-26q0 -24 -11.5 -38 t-31.5 -14q-17 0 -51.5 17.5t-89.5 35t-121 17.5q-106 0 -159.5 -54t-53.5 -130q0 -45 19.5 -84t52 -70t74.5 -60t89 -57.5t93.5 -58.5t88.5 -68t74.5 -81t52 -101.5t19.5 -126.5q0 -165 -113 -272t-313 -107q-138 0 -241 48.5t-103 113.5z" />
<glyph unicode="T" horiz-adv-x="813" d="M10 1266v43q0 57 58 57h677q58 0 58 -57v-43q0 -58 -58 -58h-231q-20 0 -20 -20v-1131q0 -57 -58 -57h-61q-56 0 -56 57v1131q0 20 -20 20h-231q-58 0 -58 58z" />
<glyph unicode="U" horiz-adv-x="991" d="M98 399v910q0 57 56 57h61q57 0 57 -57v-910q0 -128 56.5 -200t167.5 -72t167 72t56 200v910q0 57 57 57h62q55 0 55 -57v-910q0 -194 -100.5 -312t-296.5 -118t-297 118t-101 312z" />
<glyph unicode="V" horiz-adv-x="903" d="M-6 1309q-2 9 -2 16q0 15 9 25q14 16 42 16h72q52 0 65 -57l271 -1061l274 1061q13 57 66 57h69q28 0 42 -16q9 -10 9 -25q0 -8 -2 -16l-331 -1252q-16 -57 -66 -57h-125q-49 0 -65 57z" />
<glyph unicode="W" horiz-adv-x="1435" d="M-4 1309q-2 8 -2 15q0 16 10 26q14 16 41 16h76q52 0 65 -57l252 -1018l189 708l-84 310q-7 26 7 41.5t42 15.5h76q49 0 65 -57l266 -1020l254 1020q13 57 66 57h72q27 0 41 -16q9 -11 10 -26q0 -7 -2 -15l-328 -1252q-16 -57 -65 -57h-99q-49 0 -65 57l-166 611 l-166 -611q-16 -57 -66 -57h-96q-49 0 -65 57z" />
<glyph unicode="X" horiz-adv-x="942" d="M-6 18q-4 8 -4 16q0 12 8 25l373 648l-344 600q-13 22 -4.5 40.5t34.5 18.5h93q29 0 44.5 -14t32.5 -43l246 -428l248 428q11 19 19 29.5t23.5 19t35.5 8.5h86q26 0 34.5 -18.5t-4.5 -40.5l-346 -596l375 -652q8 -13 8 -25q0 -8 -4 -16q-9 -18 -35 -18h-90 q-20 0 -35.5 8.5t-23.5 19t-19 29.5l-276 480l-276 -480q-11 -19 -19 -29.5t-23.5 -19t-35.5 -8.5h-86q-26 0 -35 18z" />
<glyph unicode="Y" horiz-adv-x="870" d="M-4 1348q11 18 39 18h82q25 0 38 -9t25 -34l256 -528l256 528q12 25 25.5 34t38.5 9h80q28 0 38 -18q5 -7 5 -17q0 -13 -7 -28l-333 -668q-17 -35 -17 -74v-504q0 -57 -57 -57h-59q-58 0 -58 57v504q0 41 -16 74l-334 668q-7 15 -7 27q0 10 5 18z" />
<glyph unicode="Z" horiz-adv-x="854" d="M31 57v31q0 54 26 100l537 1020h-473q-58 0 -58 58v43q0 57 58 57h616q58 0 58 -57v-41q0 -34 -19 -70l-547 -1040h527q57 0 57 -58v-43q0 -57 -57 -57h-668q-57 0 -57 57z" />
<glyph unicode="[" horiz-adv-x="471" d="M113 -162v1696q0 57 57 57h264q58 0 58 -57v-35q0 -57 -58 -57h-151v-1512h151q58 0 58 -57v-35q0 -57 -58 -57h-264q-57 0 -57 57z" />
<glyph unicode="\" horiz-adv-x="704" d="M27 1380q-11 32 2 50t47 18h37q62 0 84 -68l481 -1394q11 -32 -2 -50t-47 -18h-37q-62 0 -84 68z" />
<glyph unicode="]" horiz-adv-x="471" d="M-20 -127q0 57 57 57h151v1512h-151q-57 0 -57 57v35q0 57 57 57h264q57 0 57 -57v-1696q0 -57 -57 -57h-264q-57 0 -57 57v35z" />
<glyph unicode="^" horiz-adv-x="987" d="M55.5 812.5q-9.5 17.5 5.5 37.5l306 410q34 45 84 45h86q50 0 84 -45l305 -410q15 -20 4.5 -37.5t-35.5 -17.5h-37q-27 0 -41 6t-29 24l-294 318l-295 -318q-17 -17 -30.5 -23.5t-39.5 -6.5h-39q-25 0 -34.5 17.5z" />
<glyph unicode="_" horiz-adv-x="729" d="M-51 -170q0 35 15 50.5t50 15.5h701q35 0 50 -15.5t15 -50.5v-20q0 -34 -15 -49t-50 -15h-701q-35 0 -50 15t-15 49v20z" />
<glyph unicode="`" horiz-adv-x="350" d="M43.5 1426q7.5 18 32.5 18h82q57 0 75 -51l70 -183q9 -19 2 -35t-33 -16h-18q-46 0 -66 31l-137 196q-15 22 -7.5 40z" />
<glyph unicode="a" horiz-adv-x="806" d="M57 326q0 90 29.5 166t89 134.5t156.5 91t223 32.5q-4 176 -178 176q-59 0 -119 -17.5t-72 -17.5q-19 0 -33 13t-14 38v37q0 40 70.5 69t179.5 29q153 0 242.5 -80t89.5 -239v-701q0 -57 -57 -57h-52q-27 0 -42 14.5t-15 38.5v8q-77 -81 -195 -81q-130 0 -216.5 90.5 t-86.5 255.5zM223 330q0 -102 49 -151.5t117 -49.5t117 49.5t49 151.5v274q-159 0 -245.5 -71t-86.5 -203z" />
<glyph unicode="b" horiz-adv-x="833" d="M92 57v1252q0 57 58 57h51q57 0 57 -57v-320q77 88 199 88q130 0 212.5 -86t82.5 -248v-430q0 -162 -82.5 -247.5t-212.5 -85.5q-121 0 -199 86v-9q0 -57 -57 -57h-51q-58 0 -58 57zM258 330q0 -102 48 -151.5t116 -49.5t116 49.5t48 151.5v397q0 102 -48 151.5 t-116 49.5t-116 -49.5t-48 -151.5v-397z" />
<glyph unicode="c" horiz-adv-x="663" d="M82 322v413q0 170 92 256t244 86q87 0 146 -29.5t59 -70.5v-45q0 -19 -13 -29t-30 -10q-13 0 -56.5 17.5t-91.5 17.5q-184 0 -184 -193v-413q0 -193 184 -193q48 0 91.5 17.5t56.5 17.5q17 0 30 -10t13 -29v-45q0 -41 -59 -70.5t-146 -29.5q-152 0 -244 86t-92 256z" />
<glyph unicode="d" horiz-adv-x="833" d="M82 313v430q0 162 82.5 248t212.5 86q117 0 198 -88v320q0 57 58 57h51q57 0 57 -57v-1252q0 -57 -57 -57h-51q-58 0 -58 57v9q-82 -86 -198 -86q-130 0 -212.5 85.5t-82.5 247.5zM248 330q0 -102 48 -151.5t116 -49.5t115.5 49.5t47.5 151.5v397q0 102 -47.5 151.5 t-115.5 49.5t-116 -49.5t-48 -151.5v-397z" />
<glyph unicode="e" horiz-adv-x="808" d="M82 330v397q0 165 90 257.5t238 92.5t237.5 -92.5t89.5 -257.5v-192q0 -58 -57 -58h-432v-147q0 -59 21 -101t56 -62.5t70 -29t74 -8.5q60 0 117 18.5t67 18.5q41 0 41 -43v-45q0 -39 -67.5 -68.5t-165.5 -29.5q-177 0 -278 91.5t-101 258.5zM248 627h323v100 q0 105 -46.5 153t-114.5 48q-69 0 -115.5 -48t-46.5 -153v-100z" />
<glyph unicode="f" horiz-adv-x="448" d="M-16 965v34q0 58 57 58h53v102q0 107 57 167t158 60q57 0 93 -20.5t36 -56.5v-29q0 -23 -13 -35t-34 -12q-8 0 -25.5 2t-33.5 2q-35 0 -53.5 -23t-18.5 -63v-94h121q57 0 57 -58v-34q0 -58 -57 -58h-121v-850q0 -57 -57 -57h-51q-58 0 -58 57v850h-53q-57 0 -57 58z" />
<glyph unicode="g" horiz-adv-x="833" d="M82 406v337q0 162 82.5 248t212.5 86q117 0 198 -88v10q0 58 58 58h51q57 0 57 -58v-954q0 -81 -26.5 -142.5t-73 -97.5t-104.5 -53.5t-127 -17.5q-109 0 -179.5 29t-70.5 69v37q0 25 14 38t33 13q12 0 71.5 -17.5t118.5 -17.5q88 0 133 45t45 115v115q-84 -88 -198 -88 q-130 0 -212.5 86t-82.5 248zM248 422q0 -102 48 -151.5t116 -49.5q67 0 115 48.5t48 148.5v309q0 102 -47.5 151.5t-115.5 49.5t-116 -49.5t-48 -151.5v-305z" />
<glyph unicode="h" horiz-adv-x="839" d="M92 57v1252q0 57 58 57h51q57 0 57 -57v-320q80 88 199 88q130 0 212.5 -86t82.5 -248v-686q0 -57 -58 -57h-51q-57 0 -57 57v670q0 102 -48 151.5t-116 49.5q-66 0 -115 -49t-49 -146v-676q0 -57 -57 -57h-51q-58 0 -58 57z" />
<glyph unicode="i" horiz-adv-x="350" d="M88 1253v56q0 57 57 57h60q57 0 57 -57v-56q0 -57 -57 -57h-60q-57 0 -57 57zM92 57v942q0 58 58 58h51q57 0 57 -58v-942q0 -57 -57 -57h-51q-58 0 -58 57z" />
<glyph unicode="j" horiz-adv-x="350" d="M-86 -160q0 23 13 35t34 12q8 0 25.5 -2t33.5 -2q35 0 53.5 23t18.5 63v1030q0 58 58 58h51q57 0 57 -58v-1038q0 -107 -57 -167t-158 -60q-57 0 -93 21t-36 57v28zM88 1253v56q0 57 57 57h60q57 0 57 -57v-56q0 -57 -57 -57h-60q-57 0 -57 57z" />
<glyph unicode="k" horiz-adv-x="790" d="M92 57v1252q0 57 58 57h51q57 0 57 -57v-731l295 421q18 29 37 43.5t51 14.5h82q27 0 34.5 -17.5t-7.5 -40.5l-281 -395l313 -547q8 -16 8 -28q0 -7 -2 -13q-8 -16 -32 -16h-78q-57 0 -88 57l-225 402l-107 -150v-252q0 -57 -57 -57h-51q-58 0 -58 57z" />
<glyph unicode="l" horiz-adv-x="350" d="M92 57v1252q0 57 58 57h51q57 0 57 -57v-1252q0 -57 -57 -57h-51q-58 0 -58 57z" />
<glyph unicode="m" horiz-adv-x="1333" d="M92 57v942q0 58 58 58h51q57 0 57 -58v-10q80 88 199 88q82 0 148.5 -36.5t103.5 -106.5q90 143 241 143q130 0 212.5 -86t82.5 -248v-686q0 -57 -57 -57h-51q-58 0 -58 57v670q0 102 -48 151.5t-116 49.5q-67 0 -115 -48.5t-48 -150.5v-672q0 -57 -58 -57h-51 q-57 0 -57 57v670q0 102 -48 151.5t-116 49.5t-116 -49.5t-48 -151.5v-670q0 -57 -57 -57h-51q-58 0 -58 57z" />
<glyph unicode="n" horiz-adv-x="839" d="M92 57v942q0 58 58 58h51q57 0 57 -58v-10q80 88 199 88q130 0 212.5 -86t82.5 -248v-686q0 -57 -58 -57h-51q-57 0 -57 57v670q0 102 -48 151.5t-116 49.5t-116 -49.5t-48 -151.5v-670q0 -57 -57 -57h-51q-58 0 -58 57z" />
<glyph unicode="o" horiz-adv-x="819" d="M82 330v397q0 165 90 257.5t238 92.5t237.5 -92.5t89.5 -257.5v-397q0 -165 -89.5 -257.5t-237.5 -92.5t-238 92.5t-90 257.5zM248 330q0 -105 46.5 -153t115.5 -48q68 0 114.5 48t46.5 153v397q0 105 -46.5 153t-114.5 48q-69 0 -115.5 -48t-46.5 -153v-397z" />
<glyph unicode="p" horiz-adv-x="833" d="M92 -188v1187q0 58 58 58h51q57 0 57 -58v-10q77 88 199 88q130 0 212.5 -86t82.5 -248v-430q0 -162 -82.5 -247.5t-212.5 -85.5q-121 0 -199 86v-254q0 -58 -57 -58h-51q-58 0 -58 58zM258 330q0 -102 48 -151.5t116 -49.5t116 49.5t48 151.5v397q0 102 -48 151.5 t-116 49.5t-116 -49.5t-48 -151.5v-397z" />
<glyph unicode="q" horiz-adv-x="833" d="M82 313v430q0 162 82.5 248t212.5 86q117 0 198 -88v10q0 58 58 58h51q57 0 57 -58v-1187q0 -58 -57 -58h-51q-58 0 -58 58v254q-82 -86 -198 -86q-130 0 -212.5 85.5t-82.5 247.5zM248 330q0 -102 48 -151.5t116 -49.5t115.5 49.5t47.5 151.5v397q0 102 -47.5 151.5 t-115.5 49.5t-116 -49.5t-48 -151.5v-397z" />
<glyph unicode="r" horiz-adv-x="497" d="M92 57v942q0 58 58 58h51q57 0 57 -58v-43q68 121 207 121q43 0 43 -37v-67q0 -32 -18 -45t-62 -15q-77 -3 -123.5 -55t-46.5 -129v-672q0 -57 -57 -57h-51q-58 0 -58 57z" />
<glyph unicode="s" horiz-adv-x="708" d="M51 92v55q0 19 13 29t30 10q15 0 46.5 -15t77.5 -30.5t95 -15.5q76 0 127.5 36.5t51.5 123.5q0 41 -24 76t-62 62t-84 53.5t-92.5 57t-84.5 66.5t-62 89.5t-24 117.5q0 125 83 197.5t225 72.5q91 0 162 -33t71 -73v-45q0 -19 -13 -29t-30 -10q-11 0 -68.5 20.5 t-111.5 20.5q-70 0 -112 -29.5t-42 -91.5q0 -37 24 -69t62 -58.5t84.5 -53.5t93 -59.5t84.5 -70t62 -92t24 -119.5q0 -152 -92.5 -228.5t-245.5 -76.5q-102 0 -185 35.5t-83 76.5z" />
<glyph unicode="t" horiz-adv-x="428" d="M-16 965v34q0 58 57 58h53v198q0 30 8 45.5t33 22.5l68 18q11 3 21 3q13 0 21 -6q15 -11 15 -38v-243h96q58 0 58 -58v-34q0 -58 -58 -58h-96v-690q0 -40 18.5 -63t53.5 -23q16 0 33.5 2t25.5 2q21 0 34 -12t13 -35v-29q0 -36 -36 -56.5t-93 -20.5q-101 0 -158 60 t-57 167v698h-53q-57 0 -57 58z" />
<glyph unicode="u" horiz-adv-x="839" d="M88 313v686q0 58 57 58h52q57 0 57 -58v-669q0 -102 48 -151.5t116 -49.5t116 49.5t48 151.5v669q0 58 57 58h51q58 0 58 -58v-942q0 -57 -58 -57h-51q-57 0 -57 57v9q-82 -86 -199 -86q-130 0 -212.5 85.5t-82.5 247.5z" />
<glyph unicode="v" horiz-adv-x="780" d="M14 999q-2 9 -2 17q0 15 8 25q13 16 41 16h62q50 0 67 -58l199 -737l205 737q17 58 68 58h57q28 0 41 -16q8 -10 8 -25q0 -8 -2 -17l-270 -942q-16 -57 -68 -57h-80q-51 0 -67 57z" />
<glyph unicode="w" horiz-adv-x="1243" d="M18 999q-2 9 -2 17q0 15 8 25q14 16 42 16h57q54 0 67 -58l185 -720l166 606l-31 114q-7 26 6 42t41 16h53q55 0 68 -58l190 -720l189 720q13 58 67 58h54q28 0 41 -16q8 -10 8 -25q0 -8 -2 -17l-254 -942q-16 -57 -68 -57h-76q-51 0 -67 57l-139 527l-144 -527 q-16 -57 -67 -57h-74q-52 0 -68 57z" />
<glyph unicode="x" horiz-adv-x="763" d="M-4 17q-5 8 -5 17q0 11 7 23l289 498l-256 444q-13 23 -2 40.5t39 17.5h75q44 0 78 -58l162 -280l164 280q34 58 78 58h71q28 0 39 -17.5t-2 -40.5l-258 -442l291 -500q7 -12 7 -23q0 -9 -5 -17q-11 -17 -39 -17h-76q-45 0 -78 57l-194 336l-197 -336q-33 -57 -78 -57 h-71q-28 0 -39 17z" />
<glyph unicode="y" horiz-adv-x="798" d="M14 999q-3 9 -3 17q0 14 10 24q16 17 45 17h63q47 0 64 -58l204 -643l211 643q10 29 24 43.5t40 14.5h61q29 0 45 -17q9 -10 9 -24q0 -8 -3 -17l-393 -1187q-20 -58 -72 -58h-57q-28 0 -40 16t-3 42l92 278z" />
<glyph unicode="z" horiz-adv-x="716" d="M20 57v31q0 28 21 66l426 753h-361q-57 0 -57 58v34q0 58 57 58h510q58 0 58 -58v-30q0 -24 -23 -66l-426 -753h404q57 0 57 -58v-35q0 -57 -57 -57h-551q-58 0 -58 57z" />
<glyph unicode="{" horiz-adv-x="522" d="M10 639v94q0 17 10 33t31 20q55 10 95 67.5t40 156.5q0 49 -10 146.5t-10 141.5q0 129 91 211t235 82q51 0 51 -43v-63q0 -43 -51 -43q-78 0 -119 -43.5t-41 -110.5q0 -38 12 -138t12 -140q0 -72 -19 -132t-46 -94t-54 -57.5t-46 -32.5l-19 -8q7 -3 19.5 -9t44.5 -31 t56 -58t44 -93.5t20 -132.5q0 -40 -12 -140.5t-12 -137.5q0 -67 41 -110.5t119 -43.5q51 0 51 -43v-63q0 -43 -51 -43q-144 0 -235 82t-91 211q0 44 10 141.5t10 146.5q0 99 -40 156.5t-95 67.5q-21 4 -31 20t-10 33z" />
<glyph unicode="|" horiz-adv-x="387" d="M113 -86v1538q0 57 57 57h47q57 0 57 -57v-1538q0 -57 -57 -57h-47q-57 0 -57 57z" />
<glyph unicode="}" horiz-adv-x="522" d="M-20 -113q0 43 51 43q78 0 118.5 43.5t40.5 110.5q0 37 -12 137.5t-12 140.5q0 72 19 132t46 94t54 57.5t46 32.5l19 8q-7 3 -19.5 9t-44.5 31t-56 58t-44 93.5t-20 132.5q0 40 12 140t12 138q0 67 -40.5 110.5t-118.5 43.5q-51 0 -51 43v63q0 43 51 43q144 0 234.5 -82 t90.5 -211q0 -44 -10 -141.5t-10 -146.5q0 -99 40 -156.5t95 -67.5q21 -4 31 -20t10 -33v-94q0 -17 -10 -33t-31 -20q-55 -10 -95 -67.5t-40 -156.5q0 -49 10 -146.5t10 -141.5q0 -129 -90.5 -211t-234.5 -82q-51 0 -51 43v63z" />
<glyph unicode="~" horiz-adv-x="874" d="M51 692q0 97 55.5 167.5t155.5 70.5q48 0 100.5 -19.5t91 -43t81.5 -43t73 -19.5q88 0 88 104q0 29 45 29h33q49 0 49 -55q0 -97 -55.5 -167.5t-155.5 -70.5q-48 0 -100.5 19.5t-91 43t-81.5 43t-73 19.5q-88 0 -88 -104q0 -29 -45 -29h-33q-49 0 -49 55z" />
<glyph unicode="&#xa1;" horiz-adv-x="382" d="M94 -252l27 893q3 57 57 57h27q54 0 57 -57l27 -893q1 -27 -14.5 -42t-43.5 -15h-79q-28 0 -43.5 15t-14.5 42zM100 928v71q0 58 58 58h67q58 0 58 -58v-71q0 -58 -58 -58h-67q-58 0 -58 58z" />
<glyph unicode="&#xa2;" horiz-adv-x="653" d="M72 752v274q0 131 56 212.5t155 111.5v106q0 57 57 57h43q57 0 57 -57v-90q74 -6 123 -34t49 -64v-45q0 -19 -13 -29t-30 -10q-13 0 -56 17.5t-91 17.5q-184 0 -184 -193v-274q0 -193 184 -193q48 0 91 17.5t56 17.5q17 0 30 -10t13 -29v-45q0 -37 -48.5 -65.5 t-123.5 -34.5v-88q0 -58 -57 -58h-43q-57 0 -57 58v104q-99 30 -155 112t-56 214z" />
<glyph unicode="&#xa3;" horiz-adv-x="856" d="M10 692v39q0 57 58 57h77v173q0 195 106 315.5t302 120.5q105 0 178.5 -36t73.5 -83v-39q0 -39 -41 -39q-7 0 -73.5 21.5t-119.5 21.5q-128 0 -192 -75.5t-64 -206.5v-173h271q57 0 57 -57v-39q0 -57 -57 -57h-271v-461q0 -20 21 -20h432q57 0 57 -58v-39q0 -57 -57 -57 h-565q-58 0 -58 57v578h-77q-58 0 -58 57z" />
<glyph unicode="&#xa4;" horiz-adv-x="960" d="M94 367l119 116q-66 87 -66 199q0 115 66 199l-119 118l70 70l117 -121q90 68 198 68q112 0 199 -68l119 121l69 -70l-118 -118q65 -87 65 -199q0 -109 -65 -199l118 -116l-69 -70l-119 117q-86 -64 -199 -64q-109 0 -198 64l-117 -117zM242 682q0 -98 69.5 -168 t167.5 -70q100 0 170 70t70 168q0 100 -70 170t-170 70q-98 0 -167.5 -70t-69.5 -170z" />
<glyph unicode="&#xa5;" horiz-adv-x="870" d="M15 1348.5q10 17.5 38 17.5h70q25 0 37.5 -9t23.5 -34l252 -545l254 545q12 25 25 34t37 9h65q28 0 38 -17.5t-3 -45.5l-199 -416h123q58 0 58 -58v-34q0 -58 -58 -58h-192l-47 -100l-5 -6h244q58 0 58 -58v-34q0 -58 -58 -58h-256v-424q0 -57 -57 -57h-55q-58 0 -58 57 v424h-256q-57 0 -57 58v34q0 58 57 58h242q0 1 -1 3t-1 3l-47 100h-193q-57 0 -57 58v34q0 58 57 58h121l-197 416q-13 28 -3 45.5z" />
<glyph unicode="&#xa6;" horiz-adv-x="387" d="M113 -86v651q0 58 57 58h47q57 0 57 -58v-651q0 -57 -57 -57h-47q-57 0 -57 57zM113 801v651q0 57 57 57h47q57 0 57 -57v-651q0 -58 -57 -58h-47q-57 0 -57 58z" />
<glyph unicode="&#xa7;" horiz-adv-x="749" d="M72 2q0 19 13 29t30 10q15 0 46.5 -15t77.5 -30.5t95 -15.5q76 0 127 36t51 123q0 27 -11 51.5t-26 43.5t-42.5 40t-49.5 34.5t-57 33.5l-39 23q-45 26 -78 51.5t-64.5 61.5t-48 82.5t-16.5 101.5q0 74 33 132t90 93q-123 100 -123 239q0 123 81.5 197t215.5 74 q106 0 175 -34.5t69 -72.5v-45q0 -19 -13 -29t-30 -10q-11 0 -69 20.5t-112 20.5q-70 0 -111.5 -29.5t-41.5 -91.5q0 -50 40 -91t113 -83l66 -39q47 -28 81.5 -55t67 -64t49.5 -85t17 -105q0 -143 -119 -221q51 -46 85 -109.5t34 -134.5q0 -152 -92.5 -228.5t-245.5 -76.5 q-102 0 -185 36t-83 77v55zM244 657q0 -83 106 -143l62 -35q46 9 74 42.5t28 82.5q0 84 -106 144l-62 34q-46 -9 -74 -42.5t-28 -82.5z" />
<glyph unicode="&#xa8;" horiz-adv-x="526" d="M41 1212v60q0 53 53 53h56q53 0 53 -53v-60q0 -53 -53 -53h-56q-53 0 -53 53zM324 1212v60q0 53 53 53h57q27 0 39 -12.5t12 -40.5v-60q0 -28 -12 -40.5t-39 -12.5h-57q-53 0 -53 53z" />
<glyph unicode="&#xa9;" horiz-adv-x="1613" d="M92 682q0 146 56.5 278t152.5 228t228 152.5t278 56.5t278 -56.5t228 -152.5t152.5 -228t56.5 -278t-56.5 -278t-152.5 -228t-228 -152.5t-278 -56.5t-278 56.5t-228 152.5t-152.5 228t-56.5 278zM172 684q0 -129 50.5 -246.5t135.5 -202.5t202.5 -135.5t246.5 -50.5 t246.5 50.5t202.5 135.5t135.5 202.5t50.5 246.5t-50.5 246.5t-135.5 202.5t-202.5 135.5t-246.5 50.5t-246.5 -50.5t-202.5 -135.5t-135.5 -202.5t-50.5 -246.5zM573 504v330q0 119 64 192.5t192 73.5q79 0 129 -25t50 -57v-23q0 -14 -9 -23t-22 -9q-6 0 -53 17t-93 17 q-72 0 -108.5 -44t-36.5 -119v-330q0 -75 36.5 -119.5t108.5 -44.5q46 0 93 17.5t53 17.5q13 0 22 -9.5t9 -23.5v-23q0 -32 -50 -56.5t-129 -24.5q-128 0 -192 73.5t-64 192.5z" />
<glyph unicode="&#xaa;" horiz-adv-x="528" d="M47 926q0 84 43 145t108 89t144 30q-4 94 -100 94q-36 0 -78 -14q-24 -8 -35 -8q-12 0 -22.5 9.5t-10.5 26.5v23q0 26 43.5 44.5t110.5 18.5q95 0 149 -48.5t54 -147.5v-414q0 -41 -41 -41h-29q-35 0 -41 31q-43 -43 -111 -43q-75 0 -129.5 55t-54.5 150zM158 928 q0 -53 27.5 -80t64.5 -27q39 0 65.5 28t26.5 89v154q-80 -3 -132 -46t-52 -118z" />
<glyph unicode="&#xab;" horiz-adv-x="866" d="M76 328q-29 53 0 106l188 297q19 31 53 31h84q20 0 27 -16t-4 -35l-197 -330l197 -330q11 -19 4 -35t-27 -16h-84q-34 0 -53 31zM438 328q-29 53 0 106l189 297q19 31 53 31h84q20 0 26.5 -16t-4.5 -35l-196 -330l196 -330q11 -19 4.5 -35t-26.5 -16h-84q-34 0 -53 31z " />
<glyph unicode="&#xac;" horiz-adv-x="1112" d="M94 633v102h924v-510h-100v408h-824z" />
<glyph unicode="&#xad;" horiz-adv-x="614" d="M72 586v28q0 34 14.5 49t48.5 15h344q34 0 49 -15t15 -49v-28q0 -32 -15 -47t-49 -15h-344q-33 0 -48 15t-15 47z" />
<glyph unicode="&#xae;" horiz-adv-x="1310" d="M82 823q0 156 76.5 288t208.5 209t288 77t288 -77t209 -209t77 -288t-77 -288t-209 -208.5t-288 -76.5q-117 0 -223 45.5t-182.5 122t-122 182.5t-45.5 223zM162 825q0 -134 66 -247.5t179.5 -179.5t247.5 -66t247.5 66t180 179.5t66.5 247.5t-66.5 247.5t-180 180 t-247.5 66.5t-247.5 -66.5t-179.5 -180t-66 -247.5zM487 543v557q0 30 33 30h142q83 0 136.5 -45.5t53.5 -134.5q0 -110 -94 -159l106 -250q5 -12 -1 -21.5t-21 -9.5h-35q-16 0 -24 7.5t-15 23.5l-88 213q-7 14 -23 14h-65q-12 0 -12 -12v-213q0 -33 -33 -33h-27 q-33 0 -33 33zM580 858q0 -6 8 -6h74q49 0 74.5 26t25.5 72q0 47 -25.5 73t-74.5 26h-76q-6 0 -6 -7v-184z" />
<glyph unicode="&#xaf;" horiz-adv-x="542" d="M41 1212v27q0 53 57 53h346q58 0 58 -53v-27q0 -53 -58 -53h-346q-57 0 -57 53z" />
<glyph unicode="&#xb0;" horiz-adv-x="643" d="M61 1124q0 107 77 183.5t184 76.5t183.5 -76.5t76.5 -183.5t-76.5 -183.5t-183.5 -76.5t-184 76.5t-77 183.5zM186 1124q0 -55 40 -95t96 -40t95.5 39.5t39.5 95.5t-40 96t-95 40q-56 0 -96 -40t-40 -96z" />
<glyph unicode="&#xb1;" horiz-adv-x="712" d="M72 57v35q0 58 57 58h455q57 0 57 -58v-35q0 -57 -57 -57h-455q-57 0 -57 57zM72 500v35q0 57 57 57h152v151q0 58 57 58h39q57 0 57 -58v-151h150q57 0 57 -57v-35q0 -58 -57 -58h-150v-153q0 -58 -57 -58h-39q-57 0 -57 58v153h-152q-57 0 -57 58z" />
<glyph unicode="&#xb2;" horiz-adv-x="530" d="M41 586v84q0 60 16 111.5t48.5 94.5t57.5 68t68 62q32 27 49 42.5t37 38.5t28.5 45t8.5 46q0 52 -35 79t-94 27q-47 0 -102 -22q-27 -11 -37 -11q-13 0 -22 8.5t-9 24.5v25q0 31 50.5 53t123.5 22q103 0 171.5 -52t68.5 -152q0 -40 -11.5 -75t-37 -66.5t-46.5 -51.5 t-59 -53q-39 -32 -61 -53.5t-49 -55t-39 -71t-12 -82.5v-21q0 -6 6 -6h262q41 0 41 -39v-20q0 -41 -41 -41h-342q-39 0 -39 41z" />
<glyph unicode="&#xb3;" horiz-adv-x="501" d="M10 602v25q0 14 9 22t22 8q3 0 27 -8q58 -20 108 -20q79 0 121.5 43.5t42.5 113.5q0 66 -45.5 106t-112.5 40h-37q-41 0 -41 41v18q0 41 41 41h33q61 0 99 33t38 92t-38.5 93t-98.5 34q-32 0 -67 -8t-43 -8q-31 0 -31 32v19q0 29 40 47t103 18q105 0 175.5 -55.5 t70.5 -167.5q0 -113 -90 -178q115 -68 115 -197q0 -118 -72 -189t-195 -71q-80 0 -127 24t-47 52z" />
<glyph unicode="&#xb4;" horiz-adv-x="350" d="M45 1175q-7 16 2 35l70 183q18 51 76 51h81q25 0 32.5 -18t-7.5 -40l-137 -196q-20 -31 -66 -31h-18q-26 0 -33 16z" />
<glyph unicode="&#xb6;" horiz-adv-x="1095" d="M61 940q0 108 36 192.5t96 134t131 74.5t149 25h481q36 0 53 -14.5t17 -48.5v-25q0 -33 -17 -47t-53 -14h-47q-33 0 -33 -35v-1360q0 -36 -11.5 -52t-45.5 -16h-18q-62 0 -62 68v1360q0 35 -32 35h-60q-33 0 -33 -35v-1360q0 -35 -14.5 -51.5t-48.5 -16.5h-19 q-33 0 -47 16.5t-14 51.5v663q0 31 -27 31q-160 13 -270.5 124t-110.5 300zM211 940q0 -117 58 -191t165 -83q29 0 29 24v500q0 24 -29 24q-107 -9 -165 -83t-58 -191z" />
<glyph unicode="&#xb7;" horiz-adv-x="366" d="M92 641v72q0 57 58 57h67q57 0 57 -57v-72q0 -57 -57 -57h-67q-58 0 -58 57z" />
<glyph unicode="&#xb8;" horiz-adv-x="464" d="M43 -412l10 41q7 27 33 27q7 0 30 -4t44 -4q125 0 125 88q0 74 -125 74q-20 0 -28.5 12t1.5 35l86 166h107l-68 -134q70 -3 118 -42.5t48 -108.5q0 -92 -70 -148.5t-194 -56.5q-129 0 -117 55z" />
<glyph unicode="&#xb9;" horiz-adv-x="276" d="M-10 1307v20q0 39 41 39h63q35 0 62.5 -20t27.5 -72v-688q0 -41 -41 -41h-30q-41 0 -41 41v674q0 6 -6 6h-35q-41 0 -41 41z" />
<glyph unicode="&#xba;" horiz-adv-x="544" d="M72 936v233q0 102 55 158.5t145 56.5t145.5 -56.5t55.5 -158.5v-233q0 -102 -55.5 -158.5t-145.5 -56.5t-145 56.5t-55 158.5zM184 936q0 -61 25.5 -88t62.5 -27t62.5 27t25.5 88v233q0 61 -25.5 88t-62.5 27t-62.5 -27t-25.5 -88v-233z" />
<glyph unicode="&#xbb;" horiz-adv-x="866" d="M75.5 16q-6.5 16 4.5 35l196 330l-196 330q-11 19 -4.5 35t26.5 16h84q35 0 54 -31l188 -297q29 -53 0 -106l-188 -297q-19 -31 -54 -31h-84q-20 0 -26.5 16zM438 16q-7 16 4 35l197 330l-197 330q-11 19 -4 35t27 16h84q34 0 53 -31l189 -297q29 -53 0 -106l-189 -297 q-19 -31 -53 -31h-84q-20 0 -27 16z" />
<glyph unicode="&#xbc;" horiz-adv-x="1122" d="M72 1307v20q0 39 41 39h63q35 0 62.5 -20t27.5 -72v-688q0 -41 -41 -41h-30q-41 0 -41 41v674q0 6 -7 6h-34q-41 0 -41 41zM167.5 15q-7.5 15 0.5 34l575 1268q22 49 66 49h27q20 0 27 -15t-1 -34l-575 -1268q-22 -49 -66 -49h-26q-20 0 -27.5 15zM553 197v18q0 27 10 47 l238 522q16 37 57 37h72q39 0 39 -39v-516q0 -4 6 -4h35q41 0 41 -41v-24q0 -41 -41 -41h-35q-6 0 -6 -6v-109q0 -41 -39 -41h-33q-41 0 -41 41v109q0 6 -6 6h-258q-39 0 -39 41zM684 274q-6 -12 8 -12h150q14 0 14 12v379z" />
<glyph unicode="&#xbd;" horiz-adv-x="1214" d="M72 1307v20q0 39 41 39h63q35 0 62.5 -20t27.5 -72v-688q0 -41 -41 -41h-30q-41 0 -41 41v674q0 6 -7 6h-34q-41 0 -41 41zM167.5 15q-7.5 15 0.5 34l575 1268q22 49 66 49h27q20 0 27 -15t-1 -34l-575 -1268q-22 -49 -66 -49h-26q-20 0 -27.5 15zM715 41v84 q0 60 16 111.5t48.5 94.5t57.5 68t68 62q32 27 49 42.5t37 38.5t28.5 45t8.5 46q0 52 -35 79t-94 27q-47 0 -102 -22q-25 -10 -37 -10q-31 0 -31 32v25q0 31 50.5 53.5t123.5 22.5q103 0 171.5 -52.5t68.5 -152.5q0 -40 -11.5 -75t-37 -66.5t-46.5 -51.5t-59 -53 q-31 -26 -49 -42t-42.5 -43t-37.5 -51t-23 -57t-10 -69v-21q0 -6 7 -6h262q41 0 41 -39v-20q0 -41 -41 -41h-342q-39 0 -39 41z" />
<glyph unicode="&#xbe;" horiz-adv-x="1273" d="M41 602v25q0 14 9 22t22 8q2 0 26 -8q58 -20 109 -20q79 0 121.5 43.5t42.5 113.5q0 66 -45.5 106t-112.5 40h-37q-41 0 -41 41v18q0 41 41 41h33q61 0 99 33t38 92t-38.5 93t-98.5 34q-33 0 -68 -8t-43 -8q-30 0 -30 32v19q0 29 40 47t103 18q105 0 175.5 -55.5 t70.5 -167.5q0 -113 -90 -178q114 -67 114 -197q0 -118 -71.5 -189t-194.5 -71q-80 0 -127 24t-47 52zM318.5 15q-7.5 15 0.5 34l576 1268q22 49 66 49h26q20 0 27.5 -15t-0.5 -34l-576 -1268q-22 -49 -65 -49h-27q-20 0 -27.5 15zM705 197v18q0 27 10 47l237 522 q16 37 58 37h71q39 0 39 -39v-516q0 -4 6 -4h35q41 0 41 -41v-24q0 -41 -41 -41h-35q-6 0 -6 -6v-109q0 -41 -39 -41h-32q-41 0 -41 41v109q0 6 -7 6h-258q-38 0 -38 41zM836 274q-6 -12 8 -12h149q15 0 15 12v379z" />
<glyph unicode="&#xbf;" horiz-adv-x="741" d="M61 8q0 62 20 116.5t51.5 95.5t70.5 79t77.5 74t70 73t51.5 84t20 99v12q0 57 57 57h27q54 0 57 -57q0 -69 -18 -129.5t-47 -104t-63.5 -82t-69.5 -73t-64 -68t-47 -75t-18 -86.5q0 -98 65.5 -152.5t163.5 -54.5q55 0 99.5 12t73 23.5t44.5 11.5q18 0 28.5 -13t10.5 -36 v-29q0 -49 -77.5 -87t-188.5 -38q-108 0 -196 38t-143 118.5t-55 191.5zM401 928v71q0 58 58 58h67q58 0 58 -58v-71q0 -58 -58 -58h-67q-58 0 -58 58z" />
<glyph unicode="&#xc0;" horiz-adv-x="901" d="M-6 57l332 1252q16 57 65 57h123q50 0 66 -57l327 -1252q7 -26 -7 -41.5t-42 -15.5h-70q-52 0 -65 57l-82 314q-5 20 -25 20h-331q-20 0 -25 -20l-82 -314q-13 -57 -65 -57h-70q-28 0 -42 15.5t-7 41.5zM258.5 1735q7.5 18 32.5 18h82q57 0 75 -51l70 -183q9 -19 2 -35 t-33 -16h-18q-46 0 -66 31l-137 196q-15 22 -7.5 40zM311 569q-2 -8 3 -14t14 -6h247q9 0 14 6t3 14l-139 547z" />
<glyph unicode="&#xc1;" horiz-adv-x="901" d="M-6 57l332 1252q16 57 65 57h123q50 0 66 -57l327 -1252q7 -26 -7 -41.5t-42 -15.5h-70q-52 0 -65 57l-82 314q-5 20 -25 20h-331q-20 0 -25 -20l-82 -314q-13 -57 -65 -57h-70q-28 0 -42 15.5t-7 41.5zM311 569q-2 -8 3 -14t14 -6h247q9 0 14 6t3 14l-139 547zM397 1484 q-7 16 2 35l70 183q18 51 76 51h81q25 0 32.5 -18t-7.5 -40l-137 -196q-20 -31 -66 -31h-18q-26 0 -33 16z" />
<glyph unicode="&#xc2;" horiz-adv-x="901" d="M-6 57l332 1252q16 57 65 57h123q50 0 66 -57l327 -1252q7 -26 -7 -41.5t-42 -15.5h-70q-52 0 -65 57l-82 314q-5 20 -25 20h-331q-20 0 -25 -20l-82 -314q-13 -57 -65 -57h-70q-28 0 -42 15.5t-7 41.5zM206 1485q-6 17 5 34l101 183q15 28 32 39.5t43 11.5h129 q26 0 43.5 -11.5t32.5 -39.5l100 -183q11 -17 5.5 -34t-31.5 -17h-23q-41 0 -65 31l-127 147l-125 -147q-24 -31 -66 -31h-22q-26 0 -32 17zM311 569q-2 -8 3 -14t14 -6h247q9 0 14 6t3 14l-139 547z" />
<glyph unicode="&#xc3;" horiz-adv-x="901" d="M-6 57l332 1252q16 57 65 57h123q50 0 66 -57l327 -1252q7 -26 -7 -41.5t-42 -15.5h-70q-52 0 -65 57l-82 314q-5 20 -25 20h-331q-20 0 -25 -20l-82 -314q-13 -57 -65 -57h-70q-28 0 -42 15.5t-7 41.5zM199 1509q0 77 40.5 124.5t106.5 47.5q44 0 81.5 -21.5t67.5 -43 t54 -21.5q40 0 45 50q1 3 2 9.5t2 9t3.5 6.5t8 5.5t13.5 1.5h47q32 0 32 -41q0 -78 -39.5 -125t-105.5 -47q-35 0 -67 13.5t-51.5 29.5t-43 29.5t-43.5 13.5q-39 0 -45 -49q0 -2 -0.5 -8.5t-1 -8t-2.5 -6t-4.5 -6t-7.5 -3t-12 -1.5h-48q-32 0 -32 41zM311 569q-2 -8 3 -14 t14 -6h247q9 0 14 6t3 14l-139 547z" />
<glyph unicode="&#xc4;" horiz-adv-x="901" d="M-6 57l332 1252q16 57 65 57h123q50 0 66 -57l327 -1252q7 -26 -7 -41.5t-42 -15.5h-70q-52 0 -65 57l-82 314q-5 20 -25 20h-331q-20 0 -25 -20l-82 -314q-13 -57 -65 -57h-70q-28 0 -42 15.5t-7 41.5zM229 1521v60q0 53 53 53h56q53 0 53 -53v-60q0 -53 -53 -53h-56 q-53 0 -53 53zM311 569q-2 -8 3 -14t14 -6h247q9 0 14 6t3 14l-139 547zM512 1521v60q0 53 53 53h57q27 0 39 -12.5t12 -40.5v-60q0 -28 -12 -40.5t-39 -12.5h-57q-53 0 -53 53z" />
<glyph unicode="&#xc5;" horiz-adv-x="901" d="M-6 57l332 1252q16 57 65 57h123q50 0 66 -57l327 -1252q7 -26 -7 -41.5t-42 -15.5h-70q-52 0 -65 57l-82 314q-5 20 -25 20h-331q-20 0 -25 -20l-82 -314q-13 -57 -65 -57h-70q-28 0 -42 15.5t-7 41.5zM258 1630q0 80 57 136.5t136 56.5t135.5 -56.5t56.5 -136.5 t-56.5 -136t-135.5 -56q-80 0 -136.5 56.5t-56.5 135.5zM311 569q-2 -8 3 -14t14 -6h247q9 0 14 6t3 14l-139 547zM358 1630q0 -38 27.5 -65t65.5 -27t65 27t27 65t-27 65t-65 27t-65.5 -27t-27.5 -65z" />
<glyph unicode="&#xc6;" horiz-adv-x="1411" d="M-6.5 17.5q-8.5 17.5 4.5 39.5l655 1252q29 57 84 57h570q57 0 57 -57v-43q0 -58 -57 -58h-404q-20 0 -20 -20v-377q0 -20 20 -20h266q58 0 58 -58v-43q0 -57 -58 -57h-266q-20 0 -20 -21v-434q0 -20 20 -20h430q58 0 58 -58v-43q0 -57 -58 -57h-567q-57 0 -57 57v314 q0 20 -21 20h-305q-20 0 -29 -16l-166 -318q-14 -28 -34.5 -42.5t-59.5 -14.5h-65q-27 0 -35.5 17.5zM453 555.5q3 -6.5 12 -6.5h223q21 0 21 20v490l-254 -490q-5 -7 -2 -13.5z" />
<glyph unicode="&#xc7;" horiz-adv-x="827" d="M82 406v555q0 196 105.5 316t316.5 120q128 0 210.5 -39.5t82.5 -89.5v-39q0 -22 -13.5 -34.5t-31.5 -12.5t-47.5 14t-79 28.5t-115.5 14.5q-127 0 -190.5 -75.5t-63.5 -202.5v-555q0 -127 63.5 -203t190.5 -76q66 0 115.5 14.5t79 28.5t47.5 14t31.5 -12.5t13.5 -34.5 v-39q0 -50 -81 -89t-206 -40l-41 -80q70 -3 118 -42.5t48 -108.5q0 -92 -70 -148.5t-194 -56.5q-129 0 -117 55l10 41q7 27 33 27q7 0 30 -4t44 -4q125 0 125 88q0 74 -125 74q-20 0 -28.5 12t1.5 35l62 120q-162 27 -243 142.5t-81 286.5z" />
<glyph unicode="&#xc8;" horiz-adv-x="804" d="M102 57v1252q0 57 58 57h540q58 0 58 -57v-43q0 -58 -58 -58h-403q-21 0 -21 -20v-377q0 -20 21 -20h266q58 0 58 -58v-43q0 -57 -58 -57h-266q-21 0 -21 -21v-434q0 -20 21 -20h430q57 0 57 -58v-43q0 -57 -57 -57h-567q-58 0 -58 57zM221.5 1735.5q7.5 17.5 32.5 17.5 h82q58 0 76 -51l69 -182q10 -19 3 -35.5t-33 -16.5h-19q-45 0 -65 31l-138 197q-15 22 -7.5 39.5z" />
<glyph unicode="&#xc9;" horiz-adv-x="804" d="M102 57v1252q0 57 58 57h540q58 0 58 -57v-43q0 -58 -58 -58h-403q-21 0 -21 -20v-377q0 -20 21 -20h266q58 0 58 -58v-43q0 -57 -58 -57h-266q-21 0 -21 -21v-434q0 -20 21 -20h430q57 0 57 -58v-43q0 -57 -57 -57h-567q-58 0 -58 57zM375 1484q-7 16 2 35l70 183 q18 51 76 51h81q25 0 32.5 -18t-7.5 -40l-137 -196q-20 -31 -66 -31h-18q-26 0 -33 16z" />
<glyph unicode="&#xca;" horiz-adv-x="804" d="M102 57v1252q0 57 58 57h540q58 0 58 -57v-43q0 -58 -58 -58h-403q-21 0 -21 -20v-377q0 -20 21 -20h266q58 0 58 -58v-43q0 -57 -58 -57h-266q-21 0 -21 -21v-434q0 -20 21 -20h430q57 0 57 -58v-43q0 -57 -57 -57h-567q-58 0 -58 57zM189.5 1485.5q-5.5 17.5 5.5 34.5 l100 182q15 28 32.5 39.5t43.5 11.5h129q26 0 43 -11.5t32 -39.5l101 -182q11 -17 5 -34.5t-32 -17.5h-22q-42 0 -66 31l-127 148l-125 -148q-24 -31 -65 -31h-23q-26 0 -31.5 17.5z" />
<glyph unicode="&#xcb;" horiz-adv-x="804" d="M102 57v1252q0 57 58 57h540q58 0 58 -57v-43q0 -58 -58 -58h-403q-21 0 -21 -20v-377q0 -20 21 -20h266q58 0 58 -58v-43q0 -57 -58 -57h-266q-21 0 -21 -21v-434q0 -20 21 -20h430q57 0 57 -58v-43q0 -57 -57 -57h-567q-58 0 -58 57zM209 1521v60q0 53 53 53h56 q53 0 53 -53v-60q0 -53 -53 -53h-56q-53 0 -53 53zM492 1521v60q0 53 53 53h57q27 0 39 -12.5t12 -40.5v-60q0 -28 -12 -40.5t-39 -12.5h-57q-53 0 -53 53z" />
<glyph unicode="&#xcc;" horiz-adv-x="378" d="M-28 1735.5q7 17.5 32 17.5h82q58 0 76 -51l69 -182q10 -19 3 -35.5t-33 -16.5h-19q-45 0 -65 31l-137 197q-15 22 -8 39.5zM102 57v1252q0 57 58 57h59q57 0 57 -57v-1252q0 -57 -57 -57h-59q-58 0 -58 57z" />
<glyph unicode="&#xcd;" horiz-adv-x="378" d="M102 57v1252q0 57 58 57h59q57 0 57 -57v-1252q0 -57 -57 -57h-59q-58 0 -58 57zM145 1484q-7 16 2 35l70 183q18 51 76 51h81q25 0 32.5 -18t-7.5 -40l-137 -196q-20 -31 -66 -31h-18q-26 0 -33 16z" />
<glyph unicode="&#xce;" horiz-adv-x="378" d="M-56.5 1485.5q-5.5 17.5 5.5 34.5l100 182q15 28 32.5 39.5t43.5 11.5h129q26 0 43.5 -11.5t32.5 -39.5l100 -182q11 -17 5 -34.5t-32 -17.5h-22q-42 0 -66 31l-127 148l-125 -148q-24 -31 -65 -31h-23q-26 0 -31.5 17.5zM102 57v1252q0 57 58 57h59q57 0 57 -57v-1252 q0 -57 -57 -57h-59q-58 0 -58 57z" />
<glyph unicode="&#xcf;" horiz-adv-x="378" d="M-33 1521v60q0 53 53 53h56q53 0 53 -53v-60q0 -53 -53 -53h-56q-53 0 -53 53zM102 57v1252q0 57 58 57h59q57 0 57 -57v-1252q0 -57 -57 -57h-59q-58 0 -58 57zM250 1521v60q0 53 53 53h57q27 0 39 -12.5t12 -40.5v-60q0 -28 -12 -40.5t-39 -12.5h-57q-53 0 -53 53z" />
<glyph unicode="&#xd0;" horiz-adv-x="991" d="M0 672v30q0 58 57 58h45v549q0 57 58 57h346q186 0 294.5 -107.5t108.5 -312.5v-526q0 -205 -108.5 -312.5t-294.5 -107.5h-346q-58 0 -58 57v557h-45q-57 0 -57 58zM276 178q0 -20 21 -20h209q103 0 166 65t63 197v526q0 132 -63 197t-166 65h-209q-21 0 -21 -20v-428 h189q57 0 57 -58v-30q0 -58 -57 -58h-189v-436z" />
<glyph unicode="&#xd1;" horiz-adv-x="1030" d="M102 57v1252q0 57 58 57h55q33 0 49 -23l494 -946v912q0 57 57 57h55q58 0 58 -57v-1252q0 -57 -58 -57h-55q-36 0 -51 27l-492 940v-910q0 -57 -57 -57h-55q-58 0 -58 57zM262 1509q0 77 40.5 124.5t106.5 47.5q44 0 81.5 -21.5t67.5 -43t54 -21.5q40 0 45 49q1 3 2 9.5 t2 9.5t3.5 7t8 5.5t13.5 1.5h47q33 0 33 -41q0 -78 -40 -125t-106 -47q-35 0 -67 13.5t-51.5 29.5t-42.5 29.5t-43 13.5q-39 0 -45 -49q0 -2 -0.5 -6.5t-1 -6t-1 -5.5t-1.5 -5.5t-3.5 -4t-5 -3t-7 -1.5t-9.5 -1h-47q-33 0 -33 41z" />
<glyph unicode="&#xd2;" d="M82 377v612q0 83 25 155.5t72.5 129.5t125 90t174.5 33q129 0 221 -57.5t134.5 -148t42.5 -202.5v-612q0 -112 -42.5 -202.5t-134.5 -148t-221 -57.5q-97 0 -174.5 33t-125 90t-72.5 129.5t-25 155.5zM256 377q0 -110 56 -180t167 -70t167 70t56 180v612q0 110 -56 180 t-167 70t-167 -70t-56 -180v-612zM266.5 1735q7.5 18 32.5 18h82q57 0 75 -51l70 -183q9 -19 2 -35t-33 -16h-18q-46 0 -66 31l-137 196q-15 22 -7.5 40z" />
<glyph unicode="&#xd3;" d="M82 377v612q0 83 25 155.5t72.5 129.5t125 90t174.5 33q129 0 221 -57.5t134.5 -148t42.5 -202.5v-612q0 -112 -42.5 -202.5t-134.5 -148t-221 -57.5q-97 0 -174.5 33t-125 90t-72.5 129.5t-25 155.5zM256 377q0 -110 56 -180t167 -70t167 70t56 180v612q0 110 -56 180 t-167 70t-167 -70t-56 -180v-612zM444 1484q-7 16 2 35l70 183q18 51 76 51h81q25 0 32.5 -18t-7.5 -40l-137 -196q-20 -31 -66 -31h-18q-26 0 -33 16z" />
<glyph unicode="&#xd4;" d="M82 377v612q0 83 25 155.5t72.5 129.5t125 90t174.5 33q129 0 221 -57.5t134.5 -148t42.5 -202.5v-612q0 -112 -42.5 -202.5t-134.5 -148t-221 -57.5q-97 0 -174.5 33t-125 90t-72.5 129.5t-25 155.5zM234.5 1485.5q-5.5 17.5 5.5 34.5l100 182q15 28 32.5 39.5 t43.5 11.5h129q26 0 43.5 -11.5t32.5 -39.5l100 -182q11 -17 5 -34.5t-32 -17.5h-22q-42 0 -66 31l-127 148l-125 -148q-24 -31 -65 -31h-23q-26 0 -31.5 17.5zM256 377q0 -110 56 -180t167 -70t167 70t56 180v612q0 110 -56 180t-167 70t-167 -70t-56 -180v-612z" />
<glyph unicode="&#xd5;" d="M82 377v612q0 83 25 155.5t72.5 129.5t125 90t174.5 33q129 0 221 -57.5t134.5 -148t42.5 -202.5v-612q0 -112 -42.5 -202.5t-134.5 -148t-221 -57.5q-97 0 -174.5 33t-125 90t-72.5 129.5t-25 155.5zM227 1509q0 77 40.5 124.5t106.5 47.5q44 0 81.5 -21.5t67.5 -43 t54 -21.5q40 0 45 49q1 3 2 9.5t2 9.5t3.5 7t8 5.5t13.5 1.5h47q33 0 33 -41q0 -78 -40 -125t-106 -47q-35 0 -67 13.5t-51.5 29.5t-42.5 29.5t-43 13.5q-39 0 -45 -49q0 -2 -0.5 -6.5t-1 -6t-1 -5.5t-1.5 -5.5t-3.5 -4t-5 -3t-7 -1.5t-9.5 -1h-47q-33 0 -33 41zM256 377 q0 -110 56 -180t167 -70t167 70t56 180v612q0 110 -56 180t-167 70t-167 -70t-56 -180v-612z" />
<glyph unicode="&#xd6;" d="M82 377v612q0 83 25 155.5t72.5 129.5t125 90t174.5 33q129 0 221 -57.5t134.5 -148t42.5 -202.5v-612q0 -112 -42.5 -202.5t-134.5 -148t-221 -57.5q-97 0 -174.5 33t-125 90t-72.5 129.5t-25 155.5zM256 377q0 -110 56 -180t167 -70t167 70t56 180v612q0 110 -56 180 t-167 70t-167 -70t-56 -180v-612zM258 1521v60q0 53 53 53h56q53 0 53 -53v-60q0 -53 -53 -53h-56q-53 0 -53 53zM541 1521v60q0 53 53 53h57q27 0 39 -12.5t12 -40.5v-60q0 -28 -12 -40.5t-39 -12.5h-57q-53 0 -53 53z" />
<glyph unicode="&#xd7;" horiz-adv-x="632" d="M80 336q-40 40 0 80l131 131l-131 131q-40 40 0 80l24 24q41 41 82 0l131 -129l129 129q40 40 80 0l25 -24q41 -41 0 -82l-129 -129l129 -129q41 -41 0 -82l-25 -25q-40 -40 -80 0l-129 129l-131 -129q-41 -41 -82 0z" />
<glyph unicode="&#xd8;" d="M66 31l65 131q-49 94 -49 215v612q0 83 25 155.5t72.5 129.5t125 90t174.5 33q147 0 246 -74l39 78q24 50 74 26l32 -16q50 -24 25 -76l-68 -133q50 -95 50 -213v-612q0 -112 -42.5 -202.5t-134.5 -148t-221 -57.5q-145 0 -243 72l-39 -76q-24 -51 -76 -26l-33 16 q-48 23 -22 76zM256 403l389 766q-60 70 -166 70q-111 0 -167 -70t-56 -180v-586zM313 195q59 -68 166 -68q111 0 167 70t56 180v579z" />
<glyph unicode="&#xd9;" horiz-adv-x="991" d="M98 399v910q0 57 56 57h61q57 0 57 -57v-910q0 -128 56.5 -200t167.5 -72t167 72t56 200v910q0 57 57 57h62q55 0 55 -57v-910q0 -194 -100.5 -312t-296.5 -118t-297 118t-101 312zM274.5 1735q7.5 18 32.5 18h82q57 0 75 -51l70 -183q9 -19 2 -35t-33 -16h-18 q-46 0 -66 31l-137 196q-15 22 -7.5 40z" />
<glyph unicode="&#xda;" horiz-adv-x="991" d="M98 399v910q0 57 56 57h61q57 0 57 -57v-910q0 -128 56.5 -200t167.5 -72t167 72t56 200v910q0 57 57 57h62q55 0 55 -57v-910q0 -194 -100.5 -312t-296.5 -118t-297 118t-101 312zM432 1484q-7 16 2 35l70 183q18 51 76 51h81q25 0 32.5 -18t-7.5 -40l-137 -196 q-20 -31 -66 -31h-18q-26 0 -33 16z" />
<glyph unicode="&#xdb;" horiz-adv-x="991" d="M98 399v910q0 57 56 57h61q57 0 57 -57v-910q0 -128 56.5 -200t167.5 -72t167 72t56 200v910q0 57 57 57h62q55 0 55 -57v-910q0 -194 -100.5 -312t-296.5 -118t-297 118t-101 312zM251 1485.5q-6 17.5 5 34.5l100 182q15 28 32.5 39.5t43.5 11.5h129q26 0 43.5 -11.5 t32.5 -39.5l100 -182q11 -17 5.5 -34.5t-31.5 -17.5h-23q-41 0 -65 31l-127 148l-125 -148q-24 -31 -66 -31h-22q-26 0 -32 17.5z" />
<glyph unicode="&#xdc;" horiz-adv-x="991" d="M98 399v910q0 57 56 57h61q57 0 57 -57v-910q0 -128 56.5 -200t167.5 -72t167 72t56 200v910q0 57 57 57h62q55 0 55 -57v-910q0 -194 -100.5 -312t-296.5 -118t-297 118t-101 312zM274 1522v59q0 53 54 53h55q53 0 53 -53v-59q0 -54 -53 -54h-55q-54 0 -54 54zM557 1522 v59q0 53 53 53h58q27 0 39 -12.5t12 -40.5v-59q0 -28 -12 -41t-39 -13h-58q-53 0 -53 54z" />
<glyph unicode="&#xdd;" horiz-adv-x="870" d="M-4 1348.5q11 17.5 39 17.5h82q25 0 38 -9t25 -34l256 -528l256 528q12 25 25.5 34t38.5 9h80q28 0 38.5 -17.5t-2.5 -45.5l-333 -668q-17 -35 -17 -74v-504q0 -57 -57 -57h-59q-58 0 -58 57v504q0 41 -16 74l-334 668q-13 28 -2 45.5zM381 1484q-7 16 2 35l70 183 q18 51 76 51h81q25 0 32.5 -18t-7.5 -40l-137 -196q-20 -31 -66 -31h-18q-26 0 -33 16z" />
<glyph unicode="&#xde;" horiz-adv-x="944" d="M102 57v1254q0 57 58 57h59q57 0 57 -57v-189q0 -20 21 -20h176q85 0 158.5 -25t131 -72.5t91 -125.5t33.5 -177q0 -100 -33.5 -177.5t-91 -125t-131 -72t-158.5 -24.5h-176q-21 0 -21 -20v-226q0 -57 -57 -57h-59q-58 0 -58 57zM276 481q0 -20 21 -20h176q116 0 178 65 t62 176t-62 176.5t-178 65.5h-176q-21 0 -21 -20v-443z" />
<glyph unicode="&#xdf;" horiz-adv-x="876" d="M86 57v940q0 84 22 150t56 106t80 66.5t89.5 36.5t88.5 10q55 0 107.5 -16.5t99.5 -50t75.5 -93t28.5 -137.5q0 -63 -23.5 -118t-56.5 -90.5t-66.5 -64.5t-57 -52.5t-23.5 -41.5t24.5 -40.5t61 -44.5t79.5 -56.5t79.5 -73t61 -96t24.5 -123.5q0 -124 -83.5 -206 t-220.5 -82q-88 0 -151.5 31t-63.5 71v43q0 20 10 31.5t25 11.5q14 0 68 -21.5t106 -21.5q61 0 102.5 36t41.5 103q0 48 -24.5 89t-61 68.5t-79.5 58t-79.5 58t-61 69.5t-24.5 91q0 43 24 81.5t58 69.5t67.5 62t57.5 71.5t24 86.5q0 68 -42.5 108t-106.5 40 q-79 0 -124.5 -56t-45.5 -164v-940q0 -57 -57 -57h-52q-57 0 -57 57z" />
<glyph unicode="&#xe0;" horiz-adv-x="806" d="M57 326q0 90 29.5 166t89 134.5t156.5 91t223 32.5q-4 176 -178 176q-59 0 -119 -17.5t-72 -17.5q-19 0 -33 13t-14 38v37q0 40 70.5 69t179.5 29q153 0 242.5 -80t89.5 -239v-701q0 -57 -57 -57h-52q-27 0 -42 14.5t-15 38.5v8q-77 -81 -195 -81q-130 0 -216.5 90.5 t-86.5 255.5zM223 330q0 -102 49 -151.5t117 -49.5t117 49.5t49 151.5v274q-159 0 -245.5 -71t-86.5 -203zM225.5 1426q7.5 18 32.5 18h82q58 0 76 -51l69 -183q10 -19 3 -35t-33 -16h-19q-45 0 -65 31l-138 196q-15 22 -7.5 40z" />
<glyph unicode="&#xe1;" horiz-adv-x="806" d="M57 326q0 90 29.5 166t89 134.5t156.5 91t223 32.5q-4 176 -178 176q-59 0 -119 -17.5t-72 -17.5q-19 0 -33 13t-14 38v37q0 40 70.5 69t179.5 29q153 0 242.5 -80t89.5 -239v-701q0 -57 -57 -57h-52q-27 0 -42 14.5t-15 38.5v8q-77 -81 -195 -81q-130 0 -216.5 90.5 t-86.5 255.5zM223 330q0 -102 49 -151.5t117 -49.5t117 49.5t49 151.5v274q-159 0 -245.5 -71t-86.5 -203zM352 1175q-7 16 2 35l70 183q18 51 76 51h81q25 0 32.5 -18t-7.5 -40l-137 -196q-20 -31 -66 -31h-18q-26 0 -33 16z" />
<glyph unicode="&#xe2;" horiz-adv-x="806" d="M57 326q0 90 29.5 166t89 134.5t156.5 91t223 32.5q-4 176 -178 176q-59 0 -119 -17.5t-72 -17.5q-19 0 -33 13t-14 38v37q0 40 70.5 69t179.5 29q153 0 242.5 -80t89.5 -239v-701q0 -57 -57 -57h-52q-27 0 -42 14.5t-15 38.5v8q-77 -81 -195 -81q-130 0 -216.5 90.5 t-86.5 255.5zM175 1176q-6 17 5 34l101 183q15 28 32 39.5t43 11.5h129q26 0 43.5 -11.5t32.5 -39.5l100 -183q11 -17 5.5 -34t-31.5 -17h-23q-41 0 -65 31l-127 147l-125 -147q-24 -31 -66 -31h-22q-26 0 -32 17zM223 330q0 -102 49 -151.5t117 -49.5t117 49.5t49 151.5 v274q-159 0 -245.5 -71t-86.5 -203z" />
<glyph unicode="&#xe3;" horiz-adv-x="806" d="M57 326q0 90 29.5 166t89 134.5t156.5 91t223 32.5q-4 176 -178 176q-59 0 -119 -17.5t-72 -17.5q-19 0 -33 13t-14 38v37q0 40 70.5 69t179.5 29q153 0 242.5 -80t89.5 -239v-701q0 -57 -57 -57h-52q-27 0 -42 14.5t-15 38.5v8q-77 -81 -195 -81q-130 0 -216.5 90.5 t-86.5 255.5zM158 1200q0 77 40.5 124.5t106.5 47.5q44 0 81.5 -21.5t67.5 -43t54 -21.5q40 0 45 49q1 3 2 9.5t2 9.5t3.5 7t8 5.5t13.5 1.5h47q33 0 33 -41q0 -78 -40 -125t-106 -47q-35 0 -67 13.5t-51.5 29.5t-42.5 29.5t-43 13.5q-39 0 -45 -49q0 -2 -0.5 -6.5t-1 -6 t-1 -5.5t-1.5 -5.5t-3.5 -4t-5 -3t-7 -1.5t-9.5 -1h-47q-33 0 -33 41zM223 330q0 -102 49 -151.5t117 -49.5t117 49.5t49 151.5v274q-159 0 -245.5 -71t-86.5 -203z" />
<glyph unicode="&#xe4;" horiz-adv-x="806" d="M57 326q0 90 29.5 166t89 134.5t156.5 91t223 32.5q-4 176 -178 176q-59 0 -119 -17.5t-72 -17.5q-19 0 -33 13t-14 38v37q0 40 70.5 69t179.5 29q153 0 242.5 -80t89.5 -239v-701q0 -57 -57 -57h-52q-27 0 -42 14.5t-15 38.5v8q-77 -81 -195 -81q-130 0 -216.5 90.5 t-86.5 255.5zM188 1212v60q0 53 54 53h55q53 0 53 -53v-60q0 -53 -53 -53h-55q-54 0 -54 53zM223 330q0 -102 49 -151.5t117 -49.5t117 49.5t49 151.5v274q-159 0 -245.5 -71t-86.5 -203zM471 1212v60q0 53 53 53h58q27 0 39 -12.5t12 -40.5v-60q0 -28 -12 -40.5t-39 -12.5 h-58q-53 0 -53 53z" />
<glyph unicode="&#xe5;" horiz-adv-x="806" d="M57 326q0 90 29.5 166t89 134.5t156.5 91t223 32.5q-4 176 -178 176q-59 0 -119 -17.5t-72 -17.5q-19 0 -33 13t-14 38v37q0 40 70.5 69t179.5 29q153 0 242.5 -80t89.5 -239v-701q0 -57 -57 -57h-52q-27 0 -42 14.5t-15 38.5v8q-77 -81 -195 -81q-130 0 -216.5 90.5 t-86.5 255.5zM211 1321q0 79 56.5 135.5t135.5 56.5q80 0 136.5 -56.5t56.5 -135.5t-57 -136t-136 -57t-135.5 56.5t-56.5 136.5zM223 330q0 -102 49 -151.5t117 -49.5t117 49.5t49 151.5v274q-159 0 -245.5 -71t-86.5 -203zM311 1321q0 -38 27 -65t65 -27t65.5 27t27.5 65 t-27.5 65t-65.5 27t-65 -27t-27 -65z" />
<glyph unicode="&#xe6;" horiz-adv-x="1282" d="M57 326q0 90 29.5 166t89 134.5t156.5 91t223 32.5q0 34 -8 63t-27 56t-55.5 42t-87.5 15q-59 0 -119 -17.5t-72 -17.5q-19 0 -33 13t-14 38v37q0 40 70.5 69t179.5 29q166 0 254 -94q91 94 240 94q148 0 237.5 -92.5t89.5 -257.5v-192q0 -58 -57 -58h-432v-145 q0 -60 21 -102.5t56.5 -63t70 -29t73.5 -8.5q60 0 117 18.5t67 18.5q41 0 41 -43v-45q0 -39 -67.5 -68.5t-165.5 -29.5q-217 0 -313 131q-79 -131 -254 -131q-131 0 -220.5 91t-89.5 255zM223 330q0 -102 49 -151.5t117 -49.5q67 0 115 46t51 142v13v274q-159 0 -245.5 -71 t-86.5 -203zM721 627h323v100q0 105 -46.5 153t-114.5 48q-66 0 -112.5 -46t-49.5 -145v-110z" />
<glyph unicode="&#xe7;" horiz-adv-x="663" d="M82 322v413q0 170 92 256t244 86q87 0 146 -29.5t59 -70.5v-45q0 -19 -13 -29t-30 -10q-13 0 -56.5 17.5t-91.5 17.5q-184 0 -184 -193v-413q0 -193 184 -193q48 0 91.5 17.5t56.5 17.5q17 0 30 -10t13 -29v-45q0 -41 -59 -70.5t-146 -29.5h-12l-46 -91q70 -3 118 -42.5 t48 -108.5q0 -92 -70 -148.5t-194 -56.5q-129 0 -117 55l11 41q7 27 32 27q7 0 30 -4t44 -4q125 0 125 88q0 74 -125 74q-20 0 -28 12t2 35l69 137q-104 27 -163.5 109.5t-59.5 218.5z" />
<glyph unicode="&#xe8;" horiz-adv-x="808" d="M82 330v397q0 165 90 257.5t238 92.5t237.5 -92.5t89.5 -257.5v-192q0 -58 -57 -58h-432v-147q0 -59 21 -101t56 -62.5t70 -29t74 -8.5q60 0 117 18.5t67 18.5q41 0 41 -43v-45q0 -39 -67.5 -68.5t-165.5 -29.5q-177 0 -278 91.5t-101 258.5zM203.5 1426q7.5 18 32.5 18 h81q58 0 76 -51l70 -183q9 -19 2 -35t-33 -16h-18q-46 0 -66 31l-137 196q-15 22 -7.5 40zM248 627h323v100q0 105 -46.5 153t-114.5 48q-69 0 -115.5 -48t-46.5 -153v-100z" />
<glyph unicode="&#xe9;" horiz-adv-x="808" d="M82 330v397q0 165 90 257.5t238 92.5t237.5 -92.5t89.5 -257.5v-192q0 -58 -57 -58h-432v-147q0 -59 21 -101t56 -62.5t70 -29t74 -8.5q60 0 117 18.5t67 18.5q41 0 41 -43v-45q0 -39 -67.5 -68.5t-165.5 -29.5q-177 0 -278 91.5t-101 258.5zM248 627h323v100 q0 105 -46.5 153t-114.5 48q-69 0 -115.5 -48t-46.5 -153v-100zM367 1175q-7 16 2 35l70 183q18 51 76 51h81q25 0 32.5 -18t-7.5 -40l-137 -196q-20 -31 -66 -31h-18q-26 0 -33 16z" />
<glyph unicode="&#xea;" horiz-adv-x="808" d="M82 330v397q0 165 90 257.5t238 92.5t237.5 -92.5t89.5 -257.5v-192q0 -58 -57 -58h-432v-147q0 -59 21 -101t56 -62.5t70 -29t74 -8.5q60 0 117 18.5t67 18.5q41 0 41 -43v-45q0 -39 -67.5 -68.5t-165.5 -29.5q-177 0 -278 91.5t-101 258.5zM159 1176q-6 17 5 34 l101 183q15 28 32 39.5t43 11.5h129q26 0 43.5 -11.5t32.5 -39.5l100 -183q11 -17 5.5 -34t-31.5 -17h-23q-41 0 -65 31l-127 147l-125 -147q-24 -31 -66 -31h-22q-26 0 -32 17zM248 627h323v100q0 105 -46.5 153t-114.5 48q-69 0 -115.5 -48t-46.5 -153v-100z" />
<glyph unicode="&#xeb;" horiz-adv-x="808" d="M82 330v397q0 165 90 257.5t238 92.5t237.5 -92.5t89.5 -257.5v-192q0 -58 -57 -58h-432v-147q0 -59 21 -101t56 -62.5t70 -29t74 -8.5q60 0 117 18.5t67 18.5q41 0 41 -43v-45q0 -39 -67.5 -68.5t-165.5 -29.5q-177 0 -278 91.5t-101 258.5zM182 1212v60q0 53 54 53h55 q53 0 53 -53v-60q0 -53 -53 -53h-55q-54 0 -54 53zM248 627h323v100q0 105 -46.5 153t-114.5 48q-69 0 -115.5 -48t-46.5 -153v-100zM465 1212v60q0 53 53 53h57q28 0 40 -12.5t12 -40.5v-60q0 -28 -12 -40.5t-40 -12.5h-57q-53 0 -53 53z" />
<glyph unicode="&#xec;" horiz-adv-x="350" d="M-28 1426q7 18 32 18h82q58 0 76 -51l69 -183q10 -19 3 -35t-33 -16h-19q-45 0 -65 31l-137 196q-15 22 -8 40zM92 57v942q0 58 58 58h51q57 0 57 -58v-942q0 -57 -57 -57h-51q-58 0 -58 57z" />
<glyph unicode="&#xed;" horiz-adv-x="350" d="M92 57v942q0 58 58 58h51q57 0 57 -58v-942q0 -57 -57 -57h-51q-58 0 -58 57zM117 1175q-7 16 2 35l70 183q18 51 76 51h81q25 0 32.5 -18t-7.5 -40l-137 -196q-20 -31 -66 -31h-18q-26 0 -33 16z" />
<glyph unicode="&#xee;" horiz-adv-x="350" d="M-71 1176q-6 17 5 34l101 183q15 28 32 39.5t43 11.5h129q26 0 43.5 -11.5t32.5 -39.5l100 -183q11 -17 5.5 -34t-31.5 -17h-23q-41 0 -65 31l-127 147l-125 -147q-24 -31 -66 -31h-22q-26 0 -32 17zM92 57v942q0 58 58 58h51q57 0 57 -58v-942q0 -57 -57 -57h-51 q-58 0 -58 57z" />
<glyph unicode="&#xef;" horiz-adv-x="350" d="M-47 1212v60q0 53 53 53h55q54 0 54 -53v-60q0 -53 -54 -53h-55q-53 0 -53 53zM92 57v942q0 58 58 58h51q57 0 57 -58v-942q0 -57 -57 -57h-51q-58 0 -58 57zM236 1212v60q0 53 53 53h57q27 0 39 -12.5t12 -40.5v-60q0 -28 -12 -40.5t-39 -12.5h-57q-53 0 -53 53z" />
<glyph unicode="&#xf0;" horiz-adv-x="819" d="M82 330v274q0 165 90 257.5t238 92.5q62 0 118 -18q-26 100 -69 182l-90 -51q-50 -29 -76 16l-14 25q-27 46 24 74l82 47q-27 34 -63 59q-33 21 -33 43q0 35 59 35h51q40 0 109 -66l88 52q52 28 78 -17l12 -24q27 -46 -22 -74l-74 -43q147 -238 147 -573v-291 q0 -165 -89.5 -257.5t-237.5 -92.5t-238 92.5t-90 257.5zM248 330q0 -105 46.5 -153t115.5 -48q68 0 114.5 48t46.5 153v274q0 105 -46.5 153t-114.5 48q-69 0 -115.5 -48t-46.5 -153v-274z" />
<glyph unicode="&#xf1;" horiz-adv-x="839" d="M92 57v942q0 58 58 58h51q57 0 57 -58v-10q80 88 199 88q130 0 212.5 -86t82.5 -248v-686q0 -57 -58 -57h-51q-57 0 -57 57v670q0 102 -48 151.5t-116 49.5t-116 -49.5t-48 -151.5v-670q0 -57 -57 -57h-51q-58 0 -58 57zM170 1200q0 77 40.5 124.5t106.5 47.5 q44 0 81.5 -21.5t67.5 -43t54 -21.5q40 0 45 49q1 3 2 9.5t2 9.5t3.5 7t8 5.5t13.5 1.5h47q33 0 33 -41q0 -78 -40 -125t-106 -47q-35 0 -67 13.5t-51.5 29.5t-42.5 29.5t-43 13.5q-39 0 -45 -49q0 -2 -0.5 -6.5t-1 -6t-1 -5.5t-1.5 -5.5t-3.5 -4t-5 -3t-7 -1.5t-9.5 -1h-47 q-33 0 -33 41z" />
<glyph unicode="&#xf2;" horiz-adv-x="819" d="M82 330v397q0 165 90 257.5t238 92.5t237.5 -92.5t89.5 -257.5v-397q0 -165 -89.5 -257.5t-237.5 -92.5t-238 92.5t-90 257.5zM199 1426q7 18 32 18h82q58 0 76 -51l70 -183q9 -19 2 -35t-33 -16h-18q-46 0 -66 31l-137 196q-15 22 -8 40zM248 330q0 -105 46.5 -153 t115.5 -48q68 0 114.5 48t46.5 153v397q0 105 -46.5 153t-114.5 48q-69 0 -115.5 -48t-46.5 -153v-397z" />
<glyph unicode="&#xf3;" horiz-adv-x="819" d="M82 330v397q0 165 90 257.5t238 92.5t237.5 -92.5t89.5 -257.5v-397q0 -165 -89.5 -257.5t-237.5 -92.5t-238 92.5t-90 257.5zM248 330q0 -105 46.5 -153t115.5 -48q68 0 114.5 48t46.5 153v397q0 105 -46.5 153t-114.5 48q-69 0 -115.5 -48t-46.5 -153v-397zM364 1175 q-7 16 2 35l70 183q18 51 76 51h81q25 0 32.5 -18t-7.5 -40l-137 -196q-20 -31 -66 -31h-18q-26 0 -33 16z" />
<glyph unicode="&#xf4;" horiz-adv-x="819" d="M82 330v397q0 165 90 257.5t238 92.5t237.5 -92.5t89.5 -257.5v-397q0 -165 -89.5 -257.5t-237.5 -92.5t-238 92.5t-90 257.5zM163 1176q-6 17 5 34l101 183q15 28 32 39.5t43 11.5h129q26 0 43.5 -11.5t32.5 -39.5l100 -183q11 -17 5.5 -34t-31.5 -17h-23q-41 0 -65 31 l-127 147l-125 -147q-24 -31 -66 -31h-22q-26 0 -32 17zM248 330q0 -105 46.5 -153t115.5 -48q68 0 114.5 48t46.5 153v397q0 105 -46.5 153t-114.5 48q-69 0 -115.5 -48t-46.5 -153v-397z" />
<glyph unicode="&#xf5;" horiz-adv-x="819" d="M82 330v397q0 165 90 257.5t238 92.5t237.5 -92.5t89.5 -257.5v-397q0 -165 -89.5 -257.5t-237.5 -92.5t-238 92.5t-90 257.5zM158 1200q0 77 40.5 124.5t106.5 47.5q44 0 81.5 -21.5t67.5 -43t54 -21.5q40 0 45 49q1 3 2 9.5t2 9.5t3.5 7t8 5.5t13.5 1.5h47q33 0 33 -41 q0 -78 -40 -125t-106 -47q-35 0 -67 13.5t-51.5 29.5t-42.5 29.5t-43 13.5q-39 0 -45 -49q0 -2 -0.5 -6.5t-1 -6t-1 -5.5t-1.5 -5.5t-3.5 -4t-5 -3t-7 -1.5t-9.5 -1h-47q-33 0 -33 41zM248 330q0 -105 46.5 -153t115.5 -48q68 0 114.5 48t46.5 153v397q0 105 -46.5 153 t-114.5 48q-69 0 -115.5 -48t-46.5 -153v-397z" />
<glyph unicode="&#xf6;" horiz-adv-x="819" d="M82 330v397q0 165 90 257.5t238 92.5t237.5 -92.5t89.5 -257.5v-397q0 -165 -89.5 -257.5t-237.5 -92.5t-238 92.5t-90 257.5zM186 1212v60q0 53 54 53h55q53 0 53 -53v-60q0 -53 -53 -53h-55q-54 0 -54 53zM248 330q0 -105 46.5 -153t115.5 -48q68 0 114.5 48t46.5 153 v397q0 105 -46.5 153t-114.5 48q-69 0 -115.5 -48t-46.5 -153v-397zM469 1212v60q0 53 53 53h58q27 0 39 -12.5t12 -40.5v-60q0 -28 -12 -40.5t-39 -12.5h-58q-53 0 -53 53z" />
<glyph unicode="&#xf7;" horiz-adv-x="712" d="M72 530v35q0 58 57 58h455q57 0 57 -58v-35q0 -57 -57 -57h-455q-57 0 -57 57zM276 303v39q0 57 58 57h49q57 0 57 -57v-39q0 -57 -57 -57h-49q-58 0 -58 57zM276 754v39q0 57 58 57h49q57 0 57 -57v-39q0 -58 -57 -58h-49q-58 0 -58 58z" />
<glyph unicode="&#xf8;" horiz-adv-x="819" d="M53.5 19.5q-4.5 16.5 9.5 41.5l54 93q-35 75 -35 176v397q0 165 90 257.5t238 92.5q119 0 204 -63l27 47q25 46 72 20l24 -14q45 -24 19 -72l-54 -92q35 -75 35 -176v-397q0 -165 -89.5 -257.5t-237.5 -92.5q-126 0 -205 61l-27 -45q-25 -46 -72 -21l-24 15 q-24 13 -28.5 29.5zM248 379l282 491q-44 58 -120 58q-69 0 -115.5 -48t-46.5 -153v-348zM287 184q44 -55 123 -55q68 0 114.5 48t46.5 153v346z" />
<glyph unicode="&#xf9;" horiz-adv-x="839" d="M88 313v686q0 58 57 58h52q57 0 57 -58v-669q0 -102 48 -151.5t116 -49.5t116 49.5t48 151.5v669q0 58 57 58h51q58 0 58 -58v-942q0 -57 -58 -57h-51q-57 0 -57 57v9q-82 -86 -199 -86q-130 0 -212.5 85.5t-82.5 247.5zM201 1426q7 18 32 18h82q58 0 76 -51l70 -183 q9 -19 2 -35t-33 -16h-18q-46 0 -66 31l-137 196q-15 22 -8 40z" />
<glyph unicode="&#xfa;" horiz-adv-x="839" d="M88 313v686q0 58 57 58h52q57 0 57 -58v-669q0 -102 48 -151.5t116 -49.5t116 49.5t48 151.5v669q0 58 57 58h51q58 0 58 -58v-942q0 -57 -58 -57h-51q-57 0 -57 57v9q-82 -86 -199 -86q-130 0 -212.5 85.5t-82.5 247.5zM348 1175q-7 16 2 35l70 183q18 51 76 51h81 q25 0 32.5 -18t-7.5 -40l-137 -196q-20 -31 -66 -31h-18q-26 0 -33 16z" />
<glyph unicode="&#xfb;" horiz-adv-x="839" d="M88 313v686q0 58 57 58h52q57 0 57 -58v-669q0 -102 48 -151.5t116 -49.5t116 49.5t48 151.5v669q0 58 57 58h51q58 0 58 -58v-942q0 -57 -58 -57h-51q-57 0 -57 57v9q-82 -86 -199 -86q-130 0 -212.5 85.5t-82.5 247.5zM171 1176q-6 17 5 34l101 183q15 28 32 39.5 t43 11.5h129q26 0 43.5 -11.5t32.5 -39.5l100 -183q11 -17 5.5 -34t-31.5 -17h-23q-41 0 -65 31l-127 147l-125 -147q-24 -31 -66 -31h-22q-26 0 -32 17z" />
<glyph unicode="&#xfc;" horiz-adv-x="839" d="M88 313v686q0 58 57 58h52q57 0 57 -58v-669q0 -102 48 -151.5t116 -49.5t116 49.5t48 151.5v669q0 58 57 58h51q58 0 58 -58v-942q0 -57 -58 -57h-51q-57 0 -57 57v9q-82 -86 -199 -86q-130 0 -212.5 85.5t-82.5 247.5zM197 1212v60q0 53 53 53h55q53 0 53 -53v-60 q0 -53 -53 -53h-55q-53 0 -53 53zM479 1212v60q0 53 53 53h58q27 0 39 -12.5t12 -40.5v-60q0 -28 -12 -40.5t-39 -12.5h-58q-53 0 -53 53z" />
<glyph unicode="&#xfd;" horiz-adv-x="798" d="M14 999q-9 25 7 41.5t45 16.5h63q47 0 64 -58l204 -643l211 643q10 29 24 43.5t40 14.5h61q29 0 44.5 -16.5t6.5 -41.5l-393 -1187q-20 -58 -72 -58h-57q-28 0 -40 16t-3 42l92 278zM336 1175q-7 16 2 35l70 183q18 51 75 51h82q25 0 32.5 -18t-7.5 -40l-137 -196 q-20 -31 -66 -31h-18q-26 0 -33 16z" />
<glyph unicode="&#xfe;" horiz-adv-x="833" d="M92 -188v1497q0 57 58 57h51q57 0 57 -57v-320q77 88 199 88q130 0 212.5 -86t82.5 -248v-430q0 -162 -82.5 -247.5t-212.5 -85.5q-121 0 -199 86v-254q0 -58 -57 -58h-51q-58 0 -58 58zM258 330q0 -102 48 -151.5t116 -49.5t116 49.5t48 151.5v397q0 102 -48 151.5 t-116 49.5t-116 -49.5t-48 -151.5v-397z" />
<glyph unicode="&#xff;" horiz-adv-x="798" d="M14 999q-9 25 7 41.5t45 16.5h63q47 0 64 -58l204 -643l211 643q10 29 24 43.5t40 14.5h61q29 0 44.5 -16.5t6.5 -41.5l-393 -1187q-20 -58 -72 -58h-57q-28 0 -40 16t-3 42l92 278zM176 1212v60q0 53 53 53h56q53 0 53 -53v-60q0 -53 -53 -53h-56q-53 0 -53 53z M459 1212v60q0 53 53 53h57q27 0 39 -12.5t12 -40.5v-60q0 -28 -12 -40.5t-39 -12.5h-57q-53 0 -53 53z" />
<glyph unicode="&#x152;" horiz-adv-x="1404" d="M82 377v612q0 83 25 155.5t72.5 129.5t125 90t174.5 33q134 0 228 -62q12 31 53 31h540q58 0 58 -57v-43q0 -58 -58 -58h-403q-20 0 -20 -20v-377q0 -20 20 -20h266q58 0 58 -58v-43q0 -57 -58 -57h-266q-20 0 -20 -21v-434q0 -20 20 -20h430q57 0 57 -58v-43 q0 -57 -57 -57h-567q-40 0 -53 29q-96 -60 -228 -60q-97 0 -174.5 33t-125 90t-72.5 129.5t-25 155.5zM256 377q0 -110 56 -180t167 -70t167 70t56 180v612q0 110 -56 180t-167 70t-167 -70t-56 -180v-612z" />
<glyph unicode="&#x153;" horiz-adv-x="1298" d="M82 330v397q0 165 90 257.5t238 92.5q157 0 243 -100q89 100 246 100q148 0 238 -92.5t90 -257.5v-192q0 -58 -58 -58h-432v-147q0 -59 21 -101t56 -62.5t70 -29t74 -8.5q60 0 117.5 18.5t67.5 18.5q41 0 41 -43v-45q0 -39 -68 -68.5t-166 -29.5q-195 0 -293 104 q-85 -104 -247 -104q-148 0 -238 92.5t-90 257.5zM248 330q0 -105 46.5 -153t115.5 -48q68 0 114.5 48t46.5 153v397q0 105 -46.5 153t-114.5 48q-69 0 -115.5 -48t-46.5 -153v-397zM737 627h324v100q0 105 -46.5 153t-115.5 48t-115.5 -48t-46.5 -153v-100z" />
<glyph unicode="&#x178;" horiz-adv-x="870" d="M-4 1348.5q11 17.5 39 17.5h82q25 0 38 -9t25 -34l256 -528l256 528q12 25 25.5 34t38.5 9h80q28 0 38.5 -17.5t-2.5 -45.5l-333 -668q-17 -35 -17 -74v-504q0 -57 -57 -57h-59q-58 0 -58 57v504q0 41 -16 74l-334 668q-13 28 -2 45.5zM213 1522v59q0 53 53 53h56 q53 0 53 -53v-59q0 -54 -53 -54h-56q-53 0 -53 54zM496 1522v59q0 53 53 53h57q27 0 39 -12.5t12 -40.5v-59q0 -28 -12 -41t-39 -13h-57q-53 0 -53 54z" />
<glyph unicode="&#x2c6;" horiz-adv-x="579" d="M44 1176q-6 17 5 34l101 183q15 28 32 39.5t43 11.5h129q26 0 43.5 -11.5t32.5 -39.5l100 -183q11 -17 5.5 -34t-31.5 -17h-23q-41 0 -65 31l-127 147l-125 -147q-24 -31 -66 -31h-22q-26 0 -32 17z" />
<glyph unicode="&#x2dc;" horiz-adv-x="585" d="M41 1200q0 77 40.5 124.5t106.5 47.5q44 0 81.5 -21.5t67.5 -43t54 -21.5q40 0 45 49q1 3 2 9.5t2 9.5t3.5 7t8 5.5t13.5 1.5h47q33 0 33 -41q0 -78 -40 -125t-106 -47q-35 0 -67 13.5t-51.5 29.5t-42.5 29.5t-43 13.5q-39 0 -45 -49q0 -2 -0.5 -6.5t-1 -6t-1 -5.5 t-1.5 -5.5t-3.5 -4t-5 -3t-7 -1.5t-9.5 -1h-47q-33 0 -33 41z" />
<glyph unicode="&#x2000;" horiz-adv-x="911" />
<glyph unicode="&#x2001;" horiz-adv-x="1823" />
<glyph unicode="&#x2002;" horiz-adv-x="911" />
<glyph unicode="&#x2003;" horiz-adv-x="1823" />
<glyph unicode="&#x2004;" horiz-adv-x="607" />
<glyph unicode="&#x2005;" horiz-adv-x="455" />
<glyph unicode="&#x2006;" horiz-adv-x="303" />
<glyph unicode="&#x2007;" horiz-adv-x="303" />
<glyph unicode="&#x2008;" horiz-adv-x="227" />
<glyph unicode="&#x2009;" horiz-adv-x="364" />
<glyph unicode="&#x200a;" horiz-adv-x="101" />
<glyph unicode="&#x2010;" horiz-adv-x="614" d="M72 586v28q0 34 14.5 49t48.5 15h344q34 0 49 -15t15 -49v-28q0 -32 -15 -47t-49 -15h-344q-33 0 -48 15t-15 47z" />
<glyph unicode="&#x2011;" horiz-adv-x="614" d="M72 586v28q0 34 14.5 49t48.5 15h344q34 0 49 -15t15 -49v-28q0 -32 -15 -47t-49 -15h-344q-33 0 -48 15t-15 47z" />
<glyph unicode="&#x2012;" horiz-adv-x="614" d="M72 586v28q0 34 14.5 49t48.5 15h344q34 0 49 -15t15 -49v-28q0 -32 -15 -47t-49 -15h-344q-33 0 -48 15t-15 47z" />
<glyph unicode="&#x2013;" horiz-adv-x="952" d="M82 590v20q0 34 14.5 49t48.5 15h662q34 0 48.5 -15t14.5 -49v-20q0 -32 -15 -47t-48 -15h-662q-33 0 -48 15t-15 47z" />
<glyph unicode="&#x2014;" horiz-adv-x="1464" d="M82 590v20q0 34 14.5 49t48.5 15h1174q34 0 48.5 -15t14.5 -49v-20q0 -32 -15 -47t-48 -15h-1174q-33 0 -48 15t-15 47z" />
<glyph unicode="&#x2018;" horiz-adv-x="346" d="M82 1096v71q0 26 18 58l78 133q17 31 37 31h25q9 0 14 -8.5t0 -22.5l-55 -133h8q57 0 57 -58v-71q0 -58 -57 -58h-68q-57 0 -57 58z" />
<glyph unicode="&#x2019;" horiz-adv-x="346" d="M82 1237v72q0 57 57 57h68q57 0 57 -57v-72q0 -25 -18 -57l-78 -133q-17 -31 -37 -31h-25q-9 0 -14 8.5t0 22.5l55 133h-8q-57 0 -57 57z" />
<glyph unicode="&#x201a;" horiz-adv-x="346" d="M82 57v72q0 57 57 57h68q57 0 57 -57v-72q0 -25 -18 -57l-78 -133q-17 -31 -37 -31h-25q-9 0 -14 8.5t0 22.5l55 133h-8q-57 0 -57 57z" />
<glyph unicode="&#x201c;" horiz-adv-x="641" d="M82 1096v71q0 26 18 58l78 133q17 31 37 31h25q9 0 14 -8.5t0 -22.5l-55 -133h8q57 0 57 -58v-71q0 -58 -57 -58h-68q-57 0 -57 58zM377 1096v71q0 26 18 58l78 133q17 31 37 31h25q9 0 14 -8.5t0 -22.5l-55 -133h8q57 0 57 -58v-71q0 -58 -57 -58h-68q-57 0 -57 58z" />
<glyph unicode="&#x201d;" horiz-adv-x="641" d="M82 1237v72q0 57 57 57h68q57 0 57 -57v-72q0 -25 -18 -57l-78 -133q-17 -31 -37 -31h-25q-9 0 -14 8.5t0 22.5l55 133h-8q-57 0 -57 57zM377 1237v72q0 57 57 57h68q57 0 57 -57v-72q0 -25 -18 -57l-78 -133q-17 -31 -37 -31h-25q-9 0 -14 8.5t0 22.5l55 133h-8 q-57 0 -57 57z" />
<glyph unicode="&#x201e;" horiz-adv-x="641" d="M82 57v72q0 57 57 57h68q57 0 57 -57v-72q0 -25 -18 -57l-78 -133q-17 -31 -37 -31h-25q-9 0 -14 8.5t0 22.5l55 133h-8q-57 0 -57 57zM377 57v72q0 57 57 57h68q57 0 57 -57v-72q0 -25 -18 -57l-78 -133q-17 -31 -37 -31h-25q-9 0 -14 8.5t0 22.5l55 133h-8 q-57 0 -57 57z" />
<glyph unicode="&#x2022;" horiz-adv-x="528" d="M92 682q0 70 51 121t121 51t121 -51t51 -121t-51 -121t-121 -51t-121 51t-51 121z" />
<glyph unicode="&#x2026;" horiz-adv-x="1038" d="M82 57v72q0 57 57 57h68q57 0 57 -57v-72q0 -57 -57 -57h-68q-57 0 -57 57zM428 57v72q0 57 57 57h68q57 0 57 -57v-72q0 -57 -57 -57h-68q-57 0 -57 57zM774 57v72q0 57 57 57h68q57 0 57 -57v-72q0 -57 -57 -57h-68q-57 0 -57 57z" />
<glyph unicode="&#x202f;" horiz-adv-x="364" />
<glyph unicode="&#x2039;" horiz-adv-x="503" d="M76 328q-29 53 0 106l188 297q19 31 53 31h84q20 0 27 -16t-4 -35l-197 -330l197 -330q11 -19 4 -35t-27 -16h-84q-34 0 -53 31z" />
<glyph unicode="&#x203a;" horiz-adv-x="503" d="M75.5 16q-6.5 16 4.5 35l196 330l-196 330q-11 19 -4.5 35t26.5 16h84q35 0 54 -31l188 -297q29 -53 0 -106l-188 -297q-19 -31 -54 -31h-84q-20 0 -26.5 16z" />
<glyph unicode="&#x205f;" horiz-adv-x="455" />
<glyph unicode="&#x20ac;" horiz-adv-x="899" d="M0 539v34q0 58 57 58h88v106h-88q-57 0 -57 58v34q0 58 57 58h88v74q0 94 24.5 172t74.5 138t131.5 93t189.5 33q128 0 210.5 -39.5t82.5 -89.5v-35q0 -22 -13.5 -34.5t-31.5 -12.5t-47.5 14t-79 28.5t-115.5 14.5q-127 0 -191.5 -77t-64.5 -205v-74h353q57 0 57 -58v-34 q0 -58 -57 -58h-353v-106h291q58 0 58 -58v-34q0 -58 -58 -58h-291v-75q0 -128 64.5 -205.5t191.5 -77.5q66 0 115.5 14.5t79 28.5t47.5 14t31.5 -12.5t13.5 -34.5v-35q0 -50 -82.5 -89.5t-210.5 -39.5q-108 0 -189.5 33.5t-131.5 93.5t-74.5 138t-24.5 172v75h-88 q-57 0 -57 58z" />
<glyph unicode="&#x2122;" horiz-adv-x="1058" d="M20 1315v20q0 31 31 31h305q31 0 31 -31v-20q0 -31 -31 -31h-100q-8 0 -8 -8v-498q0 -33 -31 -33h-27q-30 0 -30 33v498q0 8 -8 8h-101q-31 0 -31 31zM494 778v557q0 31 30 31h19q26 0 39 -29l147 -288l148 288q13 29 38 29h21q31 0 31 -31v-557q0 -33 -33 -33h-23 q-32 0 -32 33v371l-111 -215q-10 -19 -31 -19h-14q-21 0 -31 19l-110 215v-371q0 -33 -33 -33h-23q-32 0 -32 33z" />
<glyph unicode="&#xe000;" horiz-adv-x="1054" d="M0 0v1055h1055v-1055h-1055z" />
</font>
</defs>
</svg>
